<?xml version="1.0" encoding="UTF-8" standalone="no"?>
<svg
   xmlns:dc="http://purl.org/dc/elements/1.1/"
   xmlns:cc="http://creativecommons.org/ns#"
   xmlns:rdf="http://www.w3.org/1999/02/22-rdf-syntax-ns#"
   xmlns:svg="http://www.w3.org/2000/svg"
   xmlns="http://www.w3.org/2000/svg"
   xmlns:sodipodi="http://sodipodi.sourceforge.net/DTD/sodipodi-0.dtd"
   xmlns:inkscape="http://www.inkscape.org/namespaces/inkscape"
   width="90"
   height="90"
   version="1.1"
   id="svg151"
   sodipodi:docname="knight_b.svg"
   inkscape:version="1.0.1 (c497b03c, 2020-09-10)">
  <metadata
     id="metadata157">
    <rdf:RDF>
      <cc:Work
         rdf:about="">
        <dc:format>image/svg+xml</dc:format>
        <dc:type
           rdf:resource="http://purl.org/dc/dcmitype/StillImage" />
      </cc:Work>
    </rdf:RDF>
  </metadata>
  <defs
     id="defs155" />
  <sodipodi:namedview
     pagecolor="#ffffff"
     bordercolor="#666666"
     borderopacity="1"
     objecttolerance="10"
     gridtolerance="10"
     guidetolerance="10"
     inkscape:pageopacity="0"
     inkscape:pageshadow="2"
     inkscape:window-width="1018"
     inkscape:window-height="830"
     id="namedview153"
     showgrid="false"
     inkscape:zoom="5.5782101"
     inkscape:cx="42.669503"
     inkscape:cy="45"
     inkscape:window-x="0"
     inkscape:window-y="25"
     inkscape:window-maximized="0"
     inkscape:current-layer="svg151" />
  <path
     d="m 24.020885,37.060965 c 2.1516,0 4.4324,-1.248 6.8423,-3.7439 1.291,-1.291 1.9365,-2.4099 1.9365,-3.3566 0,-1.1189 -1.0328,-1.6783 -3.0984,-1.6783 -2.4098,0 -4.4324,1.0758 -6.0677,3.2275 -0.86069,1.0328 -1.291,2.1086 -1.291,3.2275 0,1.5492 0.55942,2.3238 1.6783,2.3238 m -2.1947,-28.273 c 0.17214,0 0.60246,-0.04304 1.291,-0.12911 3.873,0 8.0042,1.291 12.394,3.873 l 0.77461,0.51639 c 2.4959,-4.0451 4.3894,-6.0677 5.6804,-6.0677 2.7541,1.5492 4.5616,3.2275 5.4222,5.0349 0.43034,0.86068 1.0758,2.6681 1.9365,5.4222 0.68853,-0.17215 1.3771,-0.25819 2.0656,-0.25819 7.2296,0 14.115,4.4324 20.656,13.297 7.8321,10.242 11.748,24.185 11.748,41.828 0,3.9591 -0.17213,7.5308 -0.51639,10.715 h -54.48 c 0.17215,-5.7665 2.2808,-11.232 6.3259,-16.396 0.43034,-0.68853 1.0328,-1.4631 1.8074,-2.3238 3.1845,-4.0451 5.121,-7.1435 5.8095,-9.2952 0.34426,-1.1188 0.60246,-2.2808 0.7746,-3.4857 -5.6804,2.2377 -9.9407,5.5513 -12.781,9.9407 -1.291,2.1516 -2.7111,4.3894 -4.2603,6.7132 -0.43034,0.68854 -1.0758,1.0328 -1.9365,1.0328 -2.1517,0 -3.2275,-1.334 -3.2275,-4.0021 -0.86069,1.1189 -1.8504,1.6783 -2.9693,1.6783 l -2.582,-0.6455 c -3.7009,-0.94675 -6.3259,-2.582 -7.8751,-4.9058 -0.51639,-0.77459 -1.0758,-1.8074 -1.6783,-3.0984 0.60248,-3.7009 3.5718,-11.06 8.9079,-22.076 3.873,-7.9181 6.2829,-13.599 7.2296,-17.041 0.08605,-0.7746 0.12909,-1.8934 0.12909,-3.3566 0,-1.2049 -0.21517,-3.5287 -0.6455,-6.9714 m -7.746,45.314 c -2.0656,0 -3.4427,0.90369 -4.1312,2.7111 -0.17213,0.43033 -0.2582,0.86066 -0.2582,1.291 0,0.34426 0.12909,0.7746 0.3873,1.291 2.2377,0 3.6148,-0.94673 4.1312,-2.8402 0.08608,-0.2582 0.12911,-0.55945 0.12911,-0.9037 0,-0.17214 -0.08607,-0.68853 -0.2582,-1.5492 m 63.388,19.881 v -4.7767 c 0,-14.029 -3.5718,-25.519 -10.715,-34.47 -6.1968,-7.746 -11.834,-11.619 -16.912,-11.619 l -1.5492,-0.2582 c -0.17213,0.08606 -0.30124,0.17213 -0.38731,0.2582 -1.1188,0 -1.6783,0.47336 -1.6783,1.4201 0,0.34428 0.2582,0.77461 0.77459,1.291 4.6476,0.43032 9.7255,3.7439 15.234,9.9407 6.9714,8.0902 10.457,19.795 10.457,35.115 v 0.77461 c 0,3.7869 0.81762,5.6804 2.4529,5.6804 1.3771,0 2.1517,-1.1189 2.3238,-3.3566"
     id="path149" />
</svg>
