<?xml version="1.0" encoding="UTF-8" standalone="no"?>
<svg
   xmlns:dc="http://purl.org/dc/elements/1.1/"
   xmlns:cc="http://creativecommons.org/ns#"
   xmlns:rdf="http://www.w3.org/1999/02/22-rdf-syntax-ns#"
   xmlns:svg="http://www.w3.org/2000/svg"
   xmlns="http://www.w3.org/2000/svg"
   xmlns:sodipodi="http://sodipodi.sourceforge.net/DTD/sodipodi-0.dtd"
   xmlns:inkscape="http://www.inkscape.org/namespaces/inkscape"
   width="90"
   height="90"
   version="1.1"
   id="svg161"
   sodipodi:docname="knight_w.svg"
   inkscape:version="1.0.1 (c497b03c, 2020-09-10)">
  <metadata
     id="metadata167">
    <rdf:RDF>
      <cc:Work
         rdf:about="">
        <dc:format>image/svg+xml</dc:format>
        <dc:type
           rdf:resource="http://purl.org/dc/dcmitype/StillImage" />
      </cc:Work>
    </rdf:RDF>
  </metadata>
  <defs
     id="defs165" />
  <sodipodi:namedview
     pagecolor="#ffffff"
     bordercolor="#666666"
     borderopacity="1"
     objecttolerance="10"
     gridtolerance="10"
     guidetolerance="10"
     inkscape:pageopacity="0"
     inkscape:pageshadow="2"
     inkscape:window-width="1120"
     inkscape:window-height="922"
     id="namedview163"
     showgrid="false"
     inkscape:zoom="7.8225681"
     inkscape:cx="36.690708"
     inkscape:cy="45"
     inkscape:window-x="0"
     inkscape:window-y="25"
     inkscape:window-maximized="0"
     inkscape:current-layer="svg161" />
  <path
     d="m 15.759845,52.68016 c 1.2049,0 1.8074,0.81763 1.8074,2.4529 0,2.1517 -1.0758,3.2275 -3.2275,3.2275 -0.86065,0 -1.291,-0.68853 -1.291,-2.0656 0,-2.4099 0.90369,-3.6148 2.7111,-3.6148 m 9.2952,-15.75 c -1.2049,0 -1.8074,-0.73155 -1.8074,-2.1947 0,-2.3238 1.3771,-4.2172 4.1312,-5.6804 1.2049,-0.60246 2.3238,-0.90369 3.3566,-0.90369 1.8074,0 2.7972,0.60246 2.9693,1.8074 0,1.9795 -1.5492,3.873 -4.6476,5.6804 -1.5492,0.86069 -2.8832,1.291 -4.0021,1.291 m 1.0328,-24.271 c 0.34426,1.2049 0.51639,2.0226 0.51639,2.4529 0,0.25821 -0.12909,0.94673 -0.3873,2.0656 1.3771,0 3.2706,-0.68853 5.6804,-2.0656 -2.3238,-1.2049 -4.2603,-2.0226 -5.8095,-2.4529 m -15.363,44.41 c 0.51641,2.0656 1.8935,3.5718 4.1312,4.5185 0.86067,0.34427 1.6783,0.51639 2.4529,0.51639 h 0.25821 c 0.17213,0 1.1189,-0.51639 2.8402,-1.5492 0.51639,-0.34427 0.94673,-0.51639 1.291,-0.51639 h 0.51639 c 0.43033,0 0.64552,0.25819 0.64552,0.77458 l -0.77461,2.4529 c 0,0.7746 0.60246,1.1619 1.8074,1.1619 0.17214,0 1.248,-1.5062 3.2275,-4.5185 3.7869,-5.8525 9.1661,-10.285 16.137,-13.297 0.68852,-4.6476 2.4099,-8.7358 5.164,-12.264 0.68854,-0.94674 1.3771,-1.4201 2.0656,-1.4201 0.77461,0 1.1619,0.55943 1.1619,1.6783 0,0.25822 -0.7746,2.7111 -2.3238,7.3587 -0.60247,1.9795 -0.90371,3.4427 -0.90371,4.3894 0,0.25819 0.08607,0.81763 0.25822,1.6783 0,6.1107 -2.582,12.523 -7.746,19.236 -3.4427,4.6476 -5.3361,8.3485 -5.6804,11.103 h 42.603 c 0.34428,-3.9591 0.51641,-6.8853 0.51641,-8.7788 0,-17.73 -5.5513,-31.888 -16.654,-42.474 -3.3566,-3.0984 -6.0677,-4.6476 -8.1333,-4.6476 h -7.746 c -0.68854,-0.34427 -1.3771,-2.0656 -2.0656,-5.164 -0.51639,-2.4959 -1.1619,-4.0451 -1.9365,-4.6476 -1.0328,3.0984 -4.2173,5.5083 -9.5534,7.2296 -2.8402,0.86066 -4.8197,1.7213 -5.9386,2.582 -0.94673,3.0123 -3.7439,9.1231 -8.3915,18.332 -4.5615,9.123 -6.9714,14.545 -7.2296,16.267 m 72.296,26.078 h -54.093 c 0.34426,-5.9386 2.582,-11.619 6.7132,-17.041 3.1845,-4.3033 5.0779,-6.9284 5.6804,-7.8751 1.2049,-1.8935 1.9365,-4.1742 2.1947,-6.8423 -5.5943,2.4098 -9.9407,5.8525 -13.039,10.328 l -1.8074,2.9693 c -1.291,2.0656 -2.1086,3.2275 -2.4529,3.4857 -0.51639,0.43033 -1.0758,0.6455 -1.6783,0.6455 -2.668,0 -4.4755,-0.9037 -5.4222,-2.7111 -0.17215,-0.2582 -0.25821,-0.55943 -0.25821,-0.9037 -0.86067,0.43033 -1.7213,0.6455 -2.582,0.6455 -4.1312,0 -7.4017,-2.582 -9.8116,-7.746 0.68853,-3.7869 4.3033,-12.523 10.844,-26.207 0.68854,-1.291 1.205,-2.3238 1.5492,-3.0984 2.582,-5.7665 3.873,-10.113 3.873,-13.039 0,-0.43032 -0.25819,-2.8402 -0.77461,-7.2296 h 1.0328 c 4.6476,0 9.08,1.4631 13.297,4.3894 2.3238,-4.0451 4.2603,-6.0677 5.8095,-6.0677 2.7541,1.4631 4.6476,3.5287 5.6804,6.1968 l 1.4201,4.2603 c 0.86065,-0.17214 1.5922,-0.2582 2.1947,-0.2582 6.8853,0 13.685,4.3894 20.398,13.168 7.8321,10.242 11.748,24.271 11.748,42.087 0,4.0451 -0.17212,7.6599 -0.51639,10.844"
     id="path159" />
</svg>
