<?xml version="1.0" encoding="UTF-8" standalone="no"?>
<svg
   xmlns:dc="http://purl.org/dc/elements/1.1/"
   xmlns:cc="http://creativecommons.org/ns#"
   xmlns:rdf="http://www.w3.org/1999/02/22-rdf-syntax-ns#"
   xmlns:svg="http://www.w3.org/2000/svg"
   xmlns="http://www.w3.org/2000/svg"
   xmlns:sodipodi="http://sodipodi.sourceforge.net/DTD/sodipodi-0.dtd"
   xmlns:inkscape="http://www.inkscape.org/namespaces/inkscape"
   width="90"
   height="90"
   version="1.1"
   id="svg161"
   sodipodi:docname="knight_w.svg"
   inkscape:version="1.0.1 (c497b03c, 2020-09-10)">
  <metadata
     id="metadata167">
    <rdf:RDF>
      <cc:Work
         rdf:about="">
        <dc:format>image/svg+xml</dc:format>
        <dc:type
           rdf:resource="http://purl.org/dc/dcmitype/StillImage" />
      </cc:Work>
    </rdf:RDF>
  </metadata>
  <defs
     id="defs165" />
  <sodipodi:namedview
     pagecolor="#ffffff"
     bordercolor="#666666"
     borderopacity="1"
     objecttolerance="10"
     gridtolerance="10"
     guidetolerance="10"
     inkscape:pageopacity="0"
     inkscape:pageshadow="2"
     inkscape:window-width="1120"
     inkscape:window-height="922"
     id="namedview163"
     showgrid="false"
     inkscape:zoom="5.9049736"
     inkscape:cx="36.690708"
     inkscape:cy="45"
     inkscape:window-x="0"
     inkscape:window-y="25"
     inkscape:window-maximized="0"
     inkscape:current-layer="svg161"
     inkscape:document-rotation="0" />
  <path
     d="m 15.759845,52.68016 c 1.2049,0 1.8074,0.81763 1.8074,2.4529 0,2.1517 -1.0758,3.2275 -3.2275,3.2275 -0.86065,0 -1.291,-0.68853 -1.291,-2.0656 0,-2.4099 0.90369,-3.6148 2.7111,-3.6148 m 9.2952,-15.75 c -1.2049,0 -1.8074,-0.73155 -1.8074,-2.1947 0,-2.3238 1.3771,-4.2172 4.1312,-5.6804 1.2049,-0.60246 2.3238,-0.90369 3.3566,-0.90369 1.8074,0 2.7972,0.60246 2.9693,1.8074 0,1.9795 -1.5492,3.873 -4.6476,5.6804 -1.5492,0.86069 -2.8832,1.291 -4.0021,1.291 m 1.0328,-24.271 c 0.34426,1.2049 0.51639,2.0226 0.51639,2.4529 0,0.25821 -0.12909,0.94673 -0.3873,2.0656 1.3771,0 3.2706,-0.68853 5.6804,-2.0656 -2.3238,-1.2049 -4.2603,-2.0226 -5.8095,-2.4529 m -15.363,44.41 c 0.51641,2.0656 1.8935,3.5718 4.1312,4.5185 0.86067,0.34427 1.6783,0.51639 2.4529,0.51639 h 0.25821 c 0.17213,0 1.1189,-0.51639 2.8402,-1.5492 0.51639,-0.34427 0.94673,-0.51639 1.291,-0.51639 h 0.51639 c 0.43033,0 0.64552,0.25819 0.64552,0.77458 l -0.77461,2.4529 c 0,0.7746 0.60246,1.1619 1.8074,1.1619 0.17214,0 1.248,-1.5062 3.2275,-4.5185 3.7869,-5.8525 9.1661,-10.285 16.137,-13.297 0.68852,-4.6476 2.4099,-8.7358 5.164,-12.264 0.68854,-0.94674 1.3771,-1.4201 2.0656,-1.4201 0.77461,0 1.1619,0.55943 1.1619,1.6783 0,0.25822 -0.7746,2.7111 -2.3238,7.3587 -0.60247,1.9795 -0.90371,3.4427 -0.90371,4.3894 0,0.25819 0.08607,0.81763 0.25822,1.6783 0,6.1107 -2.582,12.523 -7.746,19.236 -3.4427,4.6476 -5.3361,8.3485 -5.6804,11.103 h 42.603 c 0.34428,-3.9591 0.51641,-6.8853 0.51641,-8.7788 0,-17.73 -5.5513,-31.888 -16.654,-42.474 -3.3566,-3.0984 -6.0677,-4.6476 -8.1333,-4.6476 h -7.746 c -0.68854,-0.34427 -1.3771,-2.0656 -2.0656,-5.164 -0.51639,-2.4959 -1.1619,-4.0451 -1.9365,-4.6476 -1.0328,3.0984 -4.2173,5.5083 -9.5534,7.2296 -2.8402,0.86066 -4.8197,1.7213 -5.9386,2.582 -0.94673,3.0123 -3.7439,9.1231 -8.3915,18.332 -4.5615,9.123 -6.9714,14.545 -7.2296,16.267 m 72.296,26.078 h -54.093 c 0.34426,-5.9386 2.582,-11.619 6.7132,-17.041 3.1845,-4.3033 5.0779,-6.9284 5.6804,-7.8751 1.2049,-1.8935 1.9365,-4.1742 2.1947,-6.8423 -5.5943,2.4098 -9.9407,5.8525 -13.039,10.328 l -1.8074,2.9693 c -1.291,2.0656 -2.1086,3.2275 -2.4529,3.4857 -0.51639,0.43033 -1.0758,0.6455 -1.6783,0.6455 -2.668,0 -4.4755,-0.9037 -5.4222,-2.7111 -0.17215,-0.2582 -0.25821,-0.55943 -0.25821,-0.9037 -0.86067,0.43033 -1.7213,0.6455 -2.582,0.6455 -4.1312,0 -7.4017,-2.582 -9.8116,-7.746 0.68853,-3.7869 4.3033,-12.523 10.844,-26.207 0.68854,-1.291 1.205,-2.3238 1.5492,-3.0984 2.582,-5.7665 3.873,-10.113 3.873,-13.039 0,-0.43032 -0.25819,-2.8402 -0.77461,-7.2296 h 1.0328 c 4.6476,0 9.08,1.4631 13.297,4.3894 2.3238,-4.0451 4.2603,-6.0677 5.8095,-6.0677 2.7541,1.4631 4.6476,3.5287 5.6804,6.1968 l 1.4201,4.2603 c 0.86065,-0.17214 1.5922,-0.2582 2.1947,-0.2582 6.8853,0 13.685,4.3894 20.398,13.168 7.8321,10.242 11.748,24.271 11.748,42.087 0,4.0451 -0.17212,7.6599 -0.51639,10.844"
     id="path159" />
  <path
     style="fill:#ffffff;stroke-width:0.169349"
     d="m 35.4249,77.811324 c 0.577136,-2.740832 2.244607,-5.804031 6.015137,-11.050007 3.829592,-5.328151 5.727123,-9.188075 6.805317,-13.843258 0.298845,-1.290285 0.367089,-2.151464 0.385905,-4.869781 0.02606,-3.764581 -0.0057,-3.60214 1.769212,-9.060159 1.394564,-4.288504 1.441702,-4.49602 1.192693,-5.250525 -0.387495,-1.174122 -1.598146,-1.208749 -2.696352,-0.07712 -2.228987,2.29682 -4.61271,7.251838 -5.405217,11.235762 l -0.306988,1.543232 -2.442543,1.275594 c -4.01193,2.095191 -7.12905,4.385991 -9.825981,7.221202 -1.543337,1.622468 -2.668087,3.098051 -5.051315,6.626927 -1.023887,1.516085 -1.924529,2.679062 -2.101066,2.713059 -0.525089,0.101123 -1.112777,-0.127083 -1.380837,-0.536194 -0.234055,-0.357212 -0.21909,-0.499582 0.17327,-1.648461 0.485108,-1.420457 0.439388,-1.965057 -0.177977,-2.120006 -0.634416,-0.159228 -1.158527,0.02828 -3.117893,1.11545 l -1.790642,0.993554 -1.012389,-0.165939 c -2.743893,-0.449744 -5.588403,-2.999884 -5.552573,-4.977951 0.02196,-1.212523 2.093433,-5.835895 8.0038,-17.863907 4.414925,-8.984684 5.916572,-12.219389 6.958766,-14.989919 0.314807,-0.836872 0.687926,-1.617214 0.829152,-1.734093 0.558712,-0.462391 2.794397,-1.422411 5.416185,-2.325751 4.223817,-1.45532 6.198742,-2.554987 8.01128,-4.460796 0.537668,-0.565337 1.157984,-1.417271 1.378479,-1.893187 l 0.400899,-0.865302 0.345685,0.485469 c 0.525296,0.737709 0.813547,1.573635 1.559758,4.523274 0.376034,1.486399 0.892592,3.124849 1.147907,3.640998 l 0.464207,0.938454 4.568112,0.09643 c 4.957336,0.104642 5.102902,0.129508 7.022238,1.199556 3.157836,1.760521 7.51065,6.024523 10.864787,10.643106 5.237263,7.211615 8.539131,15.855645 9.795463,25.643764 0.695979,5.422403 0.757138,9.863212 0.232816,16.905114 l -0.110333,1.481801 H 56.551435 35.309007 Z M 16.269209,57.994732 c 0.92406,-0.527645 1.334897,-1.392487 1.334897,-2.810053 0,-1.241526 -0.324403,-2.088431 -0.922593,-2.408571 -0.205808,-0.110147 -0.763537,-0.159964 -1.296264,-0.115786 -0.808122,0.06701 -1.010311,0.159684 -1.48966,0.682743 -0.694288,0.757599 -0.965849,1.740863 -0.883466,3.198836 0.08604,1.52271 0.368893,1.837624 1.647155,1.833866 0.666008,-0.002 1.144311,-0.115162 1.609931,-0.381035 z M 26.44598,36.810841 c 2.65232,-0.706396 5.96867,-3.092295 6.853685,-4.930785 1.054164,-2.18987 0.315961,-3.557284 -2.035523,-3.770509 -2.18747,-0.198353 -5.334141,1.231263 -6.826353,3.101394 -1.137079,1.425054 -1.606517,3.662839 -1.009288,4.811219 0.520924,1.001657 1.377345,1.2255 3.017479,0.788681 z"
     id="path2076" />
  <path
     style="fill:#ffffff;stroke-width:0.169349"
     d="m 26.418651,16.676419 c 0.271947,-1.091492 0.288194,-1.823611 0.06211,-2.798805 -0.244974,-1.056675 -0.244304,-1.062343 0.112979,-0.955504 0.7907,0.236443 2.825976,1.087942 3.926201,1.642607 l 1.164999,0.587319 -1.046101,0.52807 c -1.208914,0.610258 -3.40634,1.377347 -3.945588,1.377347 -0.298451,0 -0.351273,-0.0733 -0.2746,-0.381034 z"
     id="path2078" />
</svg>
