<?xml version="1.0" encoding="UTF-8" standalone="no"?>
<svg
   xmlns:dc="http://purl.org/dc/elements/1.1/"
   xmlns:cc="http://creativecommons.org/ns#"
   xmlns:rdf="http://www.w3.org/1999/02/22-rdf-syntax-ns#"
   xmlns:svg="http://www.w3.org/2000/svg"
   xmlns="http://www.w3.org/2000/svg"
   xmlns:sodipodi="http://sodipodi.sourceforge.net/DTD/sodipodi-0.dtd"
   xmlns:inkscape="http://www.inkscape.org/namespaces/inkscape"
   width="90"
   height="90"
   version="1.1"
   id="svg126"
   sodipodi:docname="bishop_w.svg"
   inkscape:version="1.0.1 (c497b03c, 2020-09-10)">
  <metadata
     id="metadata132">
    <rdf:RDF>
      <cc:Work
         rdf:about="">
        <dc:format>image/svg+xml</dc:format>
        <dc:type
           rdf:resource="http://purl.org/dc/dcmitype/StillImage" />
      </cc:Work>
    </rdf:RDF>
  </metadata>
  <defs
     id="defs130" />
  <sodipodi:namedview
     pagecolor="#ffffff"
     bordercolor="#666666"
     borderopacity="1"
     objecttolerance="10"
     gridtolerance="10"
     guidetolerance="10"
     inkscape:pageopacity="0"
     inkscape:pageshadow="2"
     inkscape:window-width="1887"
     inkscape:window-height="1244"
     id="namedview128"
     showgrid="false"
     inkscape:zoom="10.085454"
     inkscape:cx="43.757235"
     inkscape:cy="45"
     inkscape:window-x="0"
     inkscape:window-y="25"
     inkscape:window-maximized="0"
     inkscape:current-layer="svg126"
     inkscape:document-rotation="0" />
  <path
     d="m 44.99962,51.77774 c -6.0248,0 -10.715,-0.25821 -14.072,-0.7746 0.60235,1.2049 0.90359,2.2377 0.90369,3.0984 -10e-5,1.291 -0.2583,2.3668 -0.77458,3.2275 2.4958,-0.7746 7.1434,-1.1619 13.943,-1.1619 6.7996,0 11.447,0.38731 13.943,1.1619 -0.5165,-0.86067 -0.77469,-1.9365 -0.77459,-3.2275 -1e-4,-1.0328 0.25809,-2.0656 0.77459,-3.0984 -4.0452,0.51639 -8.6928,0.7746 -13.943,0.7746 m 0,-46.734 c -1.8075,0 -3.0555,0.81761 -3.7439,2.4529 -0.17225,0.43033 -0.2583,0.86068 -0.2582,1.291 -1e-4,1.8935 0.94662,3.1414 2.8402,3.7439 0.34416,0.0861 0.73147,0.12911 1.1619,0.12911 1.9794,0 3.2704,-0.90372 3.873,-2.7111 0.08595,-0.34428 0.12898,-0.73158 0.12911,-1.1619 -1.3e-4,-1.7213 -0.86078,-2.8832 -2.582,-3.4857 -0.5165,-0.17214 -0.98988,-0.25819 -1.4201,-0.25819 m 0,54.867 c -3.2706,0 -7.4879,0.30124 -12.652,0.9037 -1.4631,0.17215 -2.3238,0.98977 -2.582,2.4529 0,1.0328 2.3667,1.6783 7.1005,1.9365 -0.43044,-0.0861 -0.2583,-0.12911 0.51641,-0.12911 h 7.6169 c 10.07,0 15.105,-0.60246 15.105,-1.8074 -1.2e-4,-1.9795 -2.496,-3.0554 -7.4878,-3.2275 h -3.7439 c -1.119,0 -2.0657,-0.043 -2.8402,-0.12911 h -1.0328 m -0.12911,-11.877 c 9.6394,0 15.535,-0.90369 17.687,-2.7111 1.463,-1.1189 2.5388,-4.0882 3.2275,-8.9079 -0.43044,-4.3033 -3.2276,-8.4345 -8.3915,-12.394 -4.8198,-3.7869 -9.0371,-5.8956 -12.652,-6.3259 -3.3567,0.43034 -7.4449,2.539 -12.264,6.3259 -5.0779,3.9591 -7.832,8.0903 -8.2624,12.394 0.60248,4.4755 1.5492,7.3157 2.8402,8.5206 0.34426,0.34427 0.73157,0.6455 1.1619,0.90369 2.1517,1.4632 7.7029,2.1947 16.654,2.1947 m -2.1947,-6.3259 v -5.6804 h -4.3894 v -5.0349 h 4.3894 v -5.5513 h 4.6476 v 5.5513 h 4.3894 v 5.0349 h -4.3894 v 5.6804 h -4.6476 m 2.0656,26.336 c -0.77469,0 -3.0555,1.5062 -6.8423,4.5185 -2.6682,1.8074 -6.9714,2.8832 -12.91,3.2275 -4.3033,0 -7.746,0.21516 -10.328,0.6455 -2.7541,0.60246 -4.1312,1.7644 -4.1312,3.4857 0.2582,1.7213 1.1619,2.582 2.7111,2.582 l 6.8423,-1.0328 c 4.4754,0 9.1661,-0.60246 14.072,-1.8074 5.5942,-1.4631 9.209,-3.7869 10.844,-6.9714 2.3237,4.5616 8.3483,7.3157 18.074,8.2624 l 3.3566,0.51641 h 3.3566 l 6.9714,1.0328 c 1.5491,0 2.4528,-0.86067 2.7111,-2.582 -10e-5,-1.7213 -1.3772,-2.8832 -4.1312,-3.4857 l -13.814,-1.0328 c -4.3895,-0.34427 -8.6068,-2.0656 -12.652,-5.164 -1.8075,-1.4632 -3.1846,-2.1947 -4.1312,-2.1947 m 0.25821,11.232 c -3.3567,3.3566 -8.4346,5.4222 -15.234,6.1968 -2.7541,0.25819 -7.5739,0.86066 -14.459,1.8074 -1.8074,0.34428 -2.8402,1.1619 -3.0984,2.4529 -1.6353,-0.43033 -4.0451,-3.0984 -7.2296,-8.0042 -0.7746,-1.2049 -1.334,-2.0226 -1.6783,-2.4529 2.8402,-5.4222 6.3689,-8.1333 10.586,-8.1333 l 7.6169,0.3873 c 3.5287,0 7.6599,-0.81764 12.394,-2.4529 -6.1107,-0.77459 -9.1661,-2.625 -9.1661,-5.5513 l 2.582,-9.8116 v -0.25822 c -5.164,-5.6804 -7.746,-11.017 -7.746,-16.008 0,-5.6804 2.7972,-10.844 8.3915,-15.492 4.9057,-4.1312 8.5205,-6.3259 10.844,-6.5841 -1.8936,-2.3238 -2.8403,-4.7336 -2.8402,-7.2296 -1.1e-4,-3.9591 1.9794,-6.455 5.9386,-7.4878 0.94662,-0.25809 1.9794,-0.3872 3.0984,-0.38731 4.2172,1.1e-4 6.9713,1.5922 8.2624,4.7767 l 0.6455,2.7111 v 0.38728 c -10e-5,2.6681 -0.90382,5.0779 -2.7111,7.2296 2.3237,0.25821 5.9815,2.4959 10.974,6.7132 5.5081,4.5615 8.2623,9.6825 8.2624,15.363 -1.1e-4,4.8197 -2.5821,10.156 -7.746,16.008 -1e-4,1.205 0.43023,2.9263 1.291,5.164 0.86056,2.7541 1.2909,4.3894 1.291,4.9058 -1e-4,2.9263 -3.0555,4.7767 -9.1661,5.5513 4.6475,1.6353 8.7787,2.4529 12.394,2.4529 l 7.6169,-0.3873 c 4.2172,0 7.7459,2.7111 10.586,8.1333 l -4.3894,6.7132 c -1.4632,1.8935 -2.9694,3.1414 -4.5185,3.7439 -0.34438,-1.7213 -2.8403,-2.7972 -7.4878,-3.2275 0.60235,0 -0.68864,-0.12911 -3.873,-0.3873 -10.758,-1.0328 -17.902,-3.3136 -21.431,-6.8423"
     id="path124" />
  <path
     style="fill:#ffffff;stroke-width:0.0991527"
     d="m 41.873334,47.963959 c -2.345258,-0.06263 -5.382987,-0.25254 -7.011406,-0.438331 -5.694495,-0.6497 -7.922633,-1.845555 -9.148842,-4.910239 -0.523592,-1.308624 -1.015337,-3.314181 -1.337613,-5.455391 -0.102785,-0.682909 -0.09633,-0.92991 0.04406,-1.685596 0.712692,-3.836183 3.278506,-7.526007 7.694759,-11.065614 4.384026,-3.513777 8.181427,-5.648591 11.444633,-6.433917 1.023715,-0.246368 1.366508,-0.240386 2.628303,0.04587 3.321017,0.753421 7.197244,2.893318 11.619333,6.41453 3.88112,3.090451 6.302879,6.197855 7.36705,9.452799 0.549707,1.68137 0.60644,2.287239 0.35458,3.786721 -0.604111,3.596682 -1.537022,6.128908 -2.678172,7.26944 -1.990459,1.989381 -6.991415,2.896329 -16.613972,3.013024 -1.745087,0.02116 -3.70831,0.02418 -4.362718,0.0067 z m 5.502975,-9.06185 v -2.875428 h 2.181359 2.181359 v -2.528394 -2.528394 h -2.181359 -2.181359 v -2.776276 -2.776275 h -2.379665 -2.379665 v 2.776275 2.776276 H 40.43562 38.25426 v 2.528394 2.528394 h 2.18136 2.181359 v 2.875428 2.875428 h 2.379665 2.379665 z"
     id="path1422" />
  <path
     style="fill:#ffffff;stroke-width:0.0991527"
     d="m 12.35201,82.331417 c -0.747914,-0.225201 -1.293899,-0.811861 -1.603068,-1.722497 -0.514142,-1.514371 0.359092,-2.856779 2.368471,-3.641011 1.724184,-0.672924 4.003521,-0.931822 9.520297,-1.081361 3.666547,-0.09939 5.296288,-0.235547 7.757288,-0.648103 2.698991,-0.452452 5.312375,-1.295885 6.848374,-2.210216 0.36512,-0.217344 1.243897,-0.846796 1.952839,-1.398781 2.423545,-1.886984 4.509288,-3.257481 5.284664,-3.472439 0.728793,-0.202044 2.097812,0.413527 3.809015,1.7127 4.121471,3.129088 7.427499,4.67483 11.464884,5.360436 0.50948,0.08652 4.235142,0.403277 8.27925,0.703912 7.114149,0.528858 7.38369,0.556191 8.300406,0.841715 2.276427,0.709024 3.359775,2.042585 2.972109,3.658557 -0.263347,1.097755 -1.08427,1.862241 -2.10538,1.960638 -0.353538,0.03407 -1.624672,-0.113968 -3.888605,-0.452868 -3.04514,-0.455843 -3.525297,-0.503482 -5.074677,-0.503482 -1.396408,0 -2.054659,-0.05311 -3.577311,-0.288647 -1.026307,-0.158757 -2.156034,-0.318015 -2.510505,-0.353907 -1.255112,-0.127088 -3.934454,-0.566885 -5.255093,-0.86259 -5.446567,-1.219544 -9.264084,-3.344139 -11.194528,-6.230186 -0.319186,-0.477186 -0.608116,-0.928637 -0.642067,-1.003224 -0.04545,-0.09984 -0.07652,-0.104329 -0.117787,-0.01702 -0.03083,0.06523 -0.23741,0.399868 -0.459063,0.743645 -1.833005,2.842927 -5.447539,4.952243 -10.738711,6.266737 -3.826853,0.950711 -8.129124,1.551702 -12.195782,1.703646 -1.253927,0.04685 -2.514883,0.187195 -4.923831,0.548024 -3.264859,0.489033 -3.7764,0.535301 -4.271189,0.386318 z"
     id="path1424" />
  <path
     style="fill:#ffffff;stroke-width:0.0991527"
     d="m 36.072901,65.104576 c -0.245403,-0.01365 -1.093159,-0.09702 -1.883902,-0.185259 -2.435074,-0.271725 -4.010041,-0.78174 -4.286275,-1.388008 -0.285607,-0.626838 0.568918,-2.004699 1.488662,-2.400362 1.114444,-0.479421 12.336721,-1.377904 14.547208,-1.164685 0.381738,0.03682 2.545746,0.10607 4.808906,0.153887 4.983549,0.105292 6.243006,0.280131 7.822486,1.085921 0.928151,0.473507 1.648699,1.555327 1.450939,2.178414 -0.142945,0.450383 -1.402514,0.869989 -3.423415,1.140459 -2.389069,0.319745 -4.075518,0.382475 -11.898324,0.442578 -4.389986,0.03373 -8.026411,0.08395 -8.080945,0.111604 -0.05453,0.02765 -0.299937,0.03911 -0.54534,0.02545 z"
     id="path1426" />
  <path
     style="fill:#ffffff;stroke-width:0.0991527"
     d="m 31.270266,57.067482 c 0.446935,-1.025561 0.698105,-2.477459 0.586119,-3.388084 -0.07866,-0.639588 -0.389128,-1.686745 -0.655153,-2.209684 -0.104032,-0.204503 -0.154778,-0.371796 -0.11277,-0.371762 0.04201,3.4e-5 0.857208,0.08697 1.811552,0.19319 3.044929,0.338909 4.68917,0.415498 10.113576,0.471094 6.399528,0.06559 10.912829,-0.110027 14.806745,-0.576149 0.481686,-0.05766 0.89301,-0.08762 0.914055,-0.06657 0.02104,0.02104 -0.07247,0.356672 -0.207808,0.74584 -0.592442,1.703566 -0.522914,3.554676 0.195279,5.199105 0.06687,0.153113 0.03115,0.155379 -0.455768,0.02891 -1.430742,-0.371622 -3.989356,-0.672 -7.121982,-0.836113 -2.486471,-0.130262 -9.809839,-0.130952 -12.245358,-0.0012 -3.207574,0.170944 -6.125519,0.520887 -7.371024,0.883992 -0.293822,0.08566 -0.322866,0.07747 -0.257463,-0.07261 z"
     id="path1428" />
  <path
     style="fill:#ffffff;stroke-width:0.0991527"
     d="M 40.719233,47.926505 C 34.147374,47.701716 30.307718,47.040782 28.276088,45.784619 26.21993,44.513291 25.190643,42.28455 24.420997,37.437096 c -0.183947,-1.158554 -0.130355,-1.741649 0.298919,-3.252332 0.324975,-1.14364 1.463206,-3.425195 2.25462,-4.519332 1.378061,-1.90518 3.105736,-3.653514 5.461454,-5.526759 4.097264,-3.258105 7.972621,-5.405644 11.12294,-6.163802 0.965748,-0.232418 1.324564,-0.237866 2.306593,-0.03502 3.071938,0.634527 6.582307,2.440191 10.583258,5.443818 4.871096,3.656869 7.534401,6.86327 8.724608,10.50371 0.549945,1.682094 0.606688,2.287806 0.354807,3.787415 -0.607298,3.615655 -1.531003,6.122891 -2.678172,7.26944 -1.988424,1.987348 -6.92524,2.884289 -16.613972,3.018496 -1.745087,0.02417 -4.227656,0.0079 -5.516819,-0.03622 z m 6.657076,-9.024396 v -2.875428 h 2.181359 2.181359 v -2.528394 -2.528394 h -2.181359 -2.181359 v -2.776276 -2.776275 h -2.379665 -2.379665 v 2.776275 2.776276 H 40.43562 38.25426 v 2.528394 2.528394 h 2.18136 2.181359 v 2.875428 2.875428 h 2.379665 2.379665 z"
     id="path1430" />
  <path
     style="fill:#ffffff;stroke-width:0.0991527"
     d="m 43.930819,12.473438 c -1.528881,-0.411692 -2.520404,-1.433886 -2.804402,-2.8911529 -0.24055,-1.2343209 0.167169,-2.4867179 1.119626,-3.4391752 1.687663,-1.6876627 5.072595,-1.214634 6.266417,0.8757028 0.778251,1.3626889 0.493952,3.3364493 -0.650434,4.5156603 -0.886661,0.913644 -2.549924,1.310913 -3.931207,0.938965 z"
     id="path1432" />
</svg>
