<?xml version="1.0" encoding="UTF-8" standalone="no"?>
<svg
   xmlns:dc="http://purl.org/dc/elements/1.1/"
   xmlns:cc="http://creativecommons.org/ns#"
   xmlns:rdf="http://www.w3.org/1999/02/22-rdf-syntax-ns#"
   xmlns:svg="http://www.w3.org/2000/svg"
   xmlns="http://www.w3.org/2000/svg"
   xmlns:sodipodi="http://sodipodi.sourceforge.net/DTD/sodipodi-0.dtd"
   xmlns:inkscape="http://www.inkscape.org/namespaces/inkscape"
   width="90"
   height="90"
   version="1.1"
   id="svg141"
   sodipodi:docname="king_w.svg"
   inkscape:version="1.0.1 (c497b03c, 2020-09-10)">
  <metadata
     id="metadata147">
    <rdf:RDF>
      <cc:Work
         rdf:about="">
        <dc:format>image/svg+xml</dc:format>
        <dc:type
           rdf:resource="http://purl.org/dc/dcmitype/StillImage" />
      </cc:Work>
    </rdf:RDF>
  </metadata>
  <defs
     id="defs145" />
  <sodipodi:namedview
     pagecolor="#ffffff"
     bordercolor="#666666"
     borderopacity="1"
     objecttolerance="10"
     gridtolerance="10"
     guidetolerance="10"
     inkscape:pageopacity="0"
     inkscape:pageshadow="2"
     inkscape:window-width="1029"
     inkscape:window-height="852"
     id="namedview143"
     showgrid="false"
     inkscape:zoom="3.581144"
     inkscape:cx="35.484735"
     inkscape:cy="45"
     inkscape:window-x="0"
     inkscape:window-y="25"
     inkscape:window-maximized="0"
     inkscape:current-layer="svg141"
     inkscape:document-rotation="0" />
  <path
     d="m 45.000155,87.47399 c -17.127,0 -25.82,-2.8832 -26.078,-8.6497 -0.43034,-7.9181 -1.7644,-13.9 -4.0021,-17.945 -0.94673,-1.6353 -2.2808,-3.6148 -4.0021,-5.9386 -2.9263,-3.873 -4.5615,-7.1435 -4.9058,-9.8116 -0.08607,-0.68853 -0.12911,-1.4201 -0.12911,-2.1947 0,-5.4222 2.2808,-9.6825 6.8423,-12.781 1.1189,-0.68854 2.2808,-1.248 3.4857,-1.6783 4.5615,-1.6353 9.08,-1.3771 13.555,0.77461 1.6353,0.77458 3.2705,1.8074 4.9058,3.0984 l 0.12911,0.12911 c 0,-1.8074 0.08605,-3.7439 0.2582,-5.8095 0,-0.60249 0.30122,-1.4201 0.90369,-2.4529 1.3771,-2.2377 3.0123,-4.0021 4.9058,-5.2931 0.34426,-0.17214 0.68853,-0.38731 1.0328,-0.6455 v -3.0984 l -5.2931,-3.0984 v -4.6476 h 4.7767 l 1.6783,-4.9058 h 3.873 l 1.6783,4.9058 h 4.7767 v 4.6476 l -5.2931,3.0984 v 3.0984 c 4.4755,2.8402 6.7562,5.6804 6.8423,8.5206 0.17213,1.7213 0.2582,3.6148 0.2582,5.6804 l 0.12911,-0.12911 c 5.4222,-4.5615 11.103,-6.0246 17.041,-4.3894 1.5492,0.43031 3.0123,1.0758 4.3894,1.9365 4.8197,2.9262 7.2726,7.2726 7.3587,13.039 0,3.4427 -1.7213,7.5308 -5.164,12.264 -2.8402,3.9591 -4.6046,6.8423 -5.2931,8.6497 -1.4631,3.873 -2.3238,8.8648 -2.582,14.976 -0.17212,5.7665 -8.8649,8.6497 -26.078,8.6497 m 0,-43.507 3.7439,-5.9386 c 0.60247,-1.291 1.0758,-2.4959 1.4201,-3.6148 0.17215,-0.60246 0.25822,-1.8504 0.25822,-3.7439 0,-5.0779 -1.7644,-7.6169 -5.2931,-7.6169 -3.7008,0 -5.5513,2.539 -5.5513,7.6169 0,1.8935 0.08607,3.1414 0.2582,3.7439 0.68853,2.3238 2.1517,5.0779 4.3894,8.2624 0.51641,0.60247 0.77461,1.0328 0.77461,1.291 m 34.47,-0.2582 c 0,-3.873 -1.291,-6.8423 -3.873,-8.9079 -2.1516,-1.8074 -4.6906,-2.7111 -7.6169,-2.7111 -3.7008,0 -7.703,1.8934 -12.006,5.6804 -5.0779,4.3894 -7.9612,10.328 -8.6497,17.816 0,0.60246 1.5922,1.291 4.7767,2.0656 3.7009,0.68854 9.9837,1.0328 18.849,1.0328 l 5.8095,-7.746 c 1.8074,-2.7541 2.7111,-5.164 2.7111,-7.2296 m -34.47,17.428 c -2.1517,0.94675 -8.6927,1.7644 -19.623,2.4529 -1.6353,0.0861 -2.9693,0.17213 -4.0021,0.2582 0.86068,3.2705 1.4201,6.8853 1.6783,10.844 5.9386,-1.8935 13.254,-2.8402 21.947,-2.8402 8.8648,0 16.181,0.94672 21.947,2.8402 0.2582,-4.3033 0.81763,-7.9181 1.6783,-10.844 l -19.107,-1.5492 c -1.6353,-0.25819 -3.1414,-0.64549 -4.5185,-1.1619 m -34.47,-17.428 c 0,2.6681 2.1086,6.7132 6.3259,12.135 1.0328,1.291 1.7644,2.2378 2.1947,2.8402 h 2.3238 c 8.8649,0 15.32,-0.60246 19.365,-1.8074 1.291,-0.34426 1.9365,-0.77458 1.9365,-1.291 -0.68854,-7.4878 -3.5718,-13.426 -8.6497,-17.816 -4.2173,-3.7869 -8.2194,-5.6804 -12.006,-5.6804 -1.2049,0 -2.4959,0.25819 -3.873,0.7746 -3.4427,0.86066 -5.7665,3.1414 -6.9714,6.8423 l -0.6455,3.4857 v 0.51639 m 34.47,39.117 c 8.0902,0 13.685,-0.51641 16.783,-1.5492 0.7746,-0.25822 1.1619,-0.55945 1.1619,-0.90372 0,-2.2377 -5.9386,-3.3566 -17.816,-3.3566 -4.5615,0 -8.9939,0.30125 -13.297,0.90371 -3.1845,0.51639 -4.7767,1.334 -4.7767,2.4529 0,1.291 5.0779,2.1086 15.234,2.4529 h 2.7111"
     id="path139" />
  <path
     style="fill:#ffffff;stroke-width:0.27924"
     d="m 17.306365,56.097761 c -3.705011,-4.788635 -5.744004,-8.25798 -6.411638,-10.909394 -0.742538,-2.948886 0.895605,-7.825709 3.378549,-10.05809 3.003295,-2.700219 8.118975,-3.557291 12.112135,-2.029245 3.947275,1.510488 9.077033,5.652183 11.597386,9.363567 2.393138,3.52405 4.167227,8.460803 4.287443,11.930643 0.0526,1.518289 0.0094,1.635773 -0.735919,1.999646 -2.156922,1.053082 -8.784328,1.85934 -17.561021,2.136387 l -4.670045,0.147415 z"
     id="path838" />
  <path
     style="fill:#ffffff;stroke-width:0.27924"
     d="m 23.101886,73.300078 c -0.08497,-0.590778 -0.234994,-1.82809 -0.333397,-2.749583 -0.0984,-0.921494 -0.402698,-2.774952 -0.67621,-4.118796 -0.273511,-1.343844 -0.448292,-2.443353 -0.388401,-2.443353 0.05989,0 2.776696,-0.191381 6.037344,-0.425292 7.068989,-0.507111 12.137026,-1.068661 15.181886,-1.682187 2.045469,-0.412153 2.37144,-0.412589 3.889442,-0.0052 0.911274,0.244561 6.100769,0.813475 11.532213,1.264253 5.431443,0.450778 9.914287,0.858534 9.961875,0.906124 0.04759,0.04759 -0.09314,0.839439 -0.312727,1.759665 -0.219592,0.920227 -0.576941,3.160378 -0.794115,4.978113 -0.217171,1.817736 -0.449454,3.359571 -0.516181,3.4263 -0.06673,0.06673 -1.427745,-0.196597 -3.024475,-0.585167 -5.679037,-1.382014 -8.857874,-1.668994 -18.540612,-1.673813 -10.318636,-0.0051 -12.681203,0.248326 -21.262974,2.281142 -0.516361,0.122313 -0.620541,-0.0065 -0.753668,-0.932208 z"
     id="path840" />
  <path
     style="fill:#ffffff;stroke-width:0.27924"
     d="m 17.306365,56.097761 c -3.705011,-4.788635 -5.744004,-8.25798 -6.411638,-10.909394 -0.742538,-2.948886 0.895605,-7.825709 3.378549,-10.05809 3.003295,-2.700219 8.118975,-3.557291 12.112135,-2.029245 3.947275,1.510488 9.077033,5.652183 11.597386,9.363567 2.393138,3.52405 4.167227,8.460803 4.287443,11.930643 0.0526,1.518289 0.0094,1.635773 -0.735919,1.999646 -2.156922,1.053082 -8.784328,1.85934 -17.561021,2.136387 l -4.670045,0.147415 z"
     id="path842" />
  <path
     style="fill:#ffffff;stroke-width:0.27924"
     d="M 43.178983,40.744458 C 40.768194,37.001985 39.90442,34.77528 39.73967,31.878321 c -0.322967,-5.679024 1.82803,-8.918484 5.708206,-8.59671 3.306745,0.274221 4.836599,2.815031 4.836599,8.032713 0,2.879394 -0.874753,5.32514 -3.26839,9.13818 -0.991614,1.579629 -1.887053,2.871454 -1.989865,2.87072 -0.102813,-7.26e-4 -0.93407,-1.161178 -1.847237,-2.578766 z"
     id="path844" />
  <path
     style="fill:#ffffff;stroke-width:0.27924"
     d="M 63.548393,58.39374 C 56.520789,58.188727 55.355664,58.086791 51.985475,57.38211 49.1435,56.787875 47.492071,56.049358 47.492071,55.372665 c 0,-1.237537 0.933661,-5.313898 1.694784,-7.399427 2.119862,-5.808558 6.822299,-11.009434 12.679265,-14.023214 5.369984,-2.763197 10.461035,-2.12056 14.412108,1.819222 1.820873,1.815668 2.726123,3.87575 2.967319,6.752734 0.179488,2.140932 -0.515293,4.827953 -1.802692,6.971804 -1.267561,2.110811 -6.612497,9.170704 -6.913452,9.131676 -0.153583,-0.01992 -3.295037,-0.12419 -6.98101,-0.23172 z"
     id="path846" />
  <path
     style="fill:#ffffff;stroke-width:0.27924"
     d="m 36.199401,82.40454 c -8.137223,-0.677136 -10.845302,-1.897268 -7.614122,-3.430564 2.467254,-1.170788 12.357187,-2.036247 20.163374,-1.764478 8.120084,0.282698 11.91777,0.921328 13.463525,2.264065 0.711842,0.618349 0.740154,0.713809 0.334172,1.126746 -0.539263,0.548497 -2.704063,1.130886 -5.699726,1.533376 -3.015077,0.405099 -16.852601,0.586623 -20.647223,0.270855 z"
     id="path848" />
</svg>
