<?xml version="1.0" encoding="UTF-8" standalone="no"?>
<svg
   xmlns:dc="http://purl.org/dc/elements/1.1/"
   xmlns:cc="http://creativecommons.org/ns#"
   xmlns:rdf="http://www.w3.org/1999/02/22-rdf-syntax-ns#"
   xmlns:svg="http://www.w3.org/2000/svg"
   xmlns="http://www.w3.org/2000/svg"
   xmlns:sodipodi="http://sodipodi.sourceforge.net/DTD/sodipodi-0.dtd"
   xmlns:inkscape="http://www.inkscape.org/namespaces/inkscape"
   width="90"
   height="90"
   version="1.1"
   id="svg196"
   sodipodi:docname="queen_w.svg"
   inkscape:version="1.0.1 (c497b03c, 2020-09-10)">
  <metadata
     id="metadata202">
    <rdf:RDF>
      <cc:Work
         rdf:about="">
        <dc:format>image/svg+xml</dc:format>
        <dc:type
           rdf:resource="http://purl.org/dc/dcmitype/StillImage" />
      </cc:Work>
    </rdf:RDF>
  </metadata>
  <defs
     id="defs200" />
  <sodipodi:namedview
     pagecolor="#ffffff"
     bordercolor="#666666"
     borderopacity="1"
     objecttolerance="10"
     gridtolerance="10"
     guidetolerance="10"
     inkscape:pageopacity="0"
     inkscape:pageshadow="2"
     inkscape:window-width="1128"
     inkscape:window-height="832"
     id="namedview198"
     showgrid="false"
     inkscape:zoom="4.9874669"
     inkscape:cx="36.303103"
     inkscape:cy="45"
     inkscape:window-x="0"
     inkscape:window-y="25"
     inkscape:window-maximized="0"
     inkscape:current-layer="svg196"
     inkscape:document-rotation="0" />
  <path
     d="m 42.094105,57.650865 h 5.6804 c 1.2909,0 2.8401,0.043 4.6476,0.12908 l 12.781,0.77461 h 0.12911 c 1.5491,0 2.3237,-0.21518 2.3238,-0.6455 v -0.51641 c -1.2e-4,-2.582 -5.7235,-4.2603 -17.17,-5.0349 -2.0657,-0.17215 -3.8731,-0.25821 -5.4222,-0.25821 -8.4346,0 -14.933,0.86067 -19.494,2.582 -2.0656,0.77458 -3.0984,1.6783 -3.0984,2.7111 v 0.51641 c 0,0.43032 0.77461,0.6455 2.3238,0.6455 l 17.299,-0.90369 m 23.883,5.8095 c -6.7994,-0.86066 -13.771,-1.291 -20.914,-1.291 -7.4879,0 -14.459,0.43034 -20.914,1.291 1.0328,0.86066 1.5492,2.539 1.5492,5.0349 0,1.6353 -0.25819,2.625 -0.77458,2.9693 5.164,-0.94673 11.877,-1.4201 20.14,-1.4201 8.263,0 14.975,0.47337 20.14,1.4201 -0.51651,-0.34427 -0.77471,-1.334 -0.77461,-2.9693 -1e-4,-2.496 0.51631,-4.1742 1.5492,-5.0349 m -20.914,11.103 c -4.3895,0 -9.2953,0.21517 -14.717,0.64551 -4.2173,0.34425 -6.3259,1.334 -6.3259,2.9693 0,2.1516 7.0144,3.2275 21.043,3.2275 14.0286,0 21.043,-1.0758 21.043,-3.2275 -10e-5,-0.68854 -0.55953,-1.334 -1.6783,-1.9365 -3.2706,-1.1189 -9.7256,-1.6783 -19.365,-1.6783 m 0,-67.519 c -2.1518,0 -3.2276,1.0328 -3.2275,3.0984 -1.3e-4,2.2377 1.0757,3.3566 3.2275,3.3566 2.0655,0 3.0983,-1.1189 3.0984,-3.3566 -10e-5,-2.0656 -1.0329,-3.0984 -3.0984,-3.0984 m 0,-3.7439 c 3.0983,0 5.25,1.4201 6.455,4.2603 l 0.6455,2.582 v 0.38731 c -1.1e-4,0.51639 -0.34437,1.5922 -1.0328,3.2275 -1.205,3.5287 -1.8075,6.5841 -1.8074,9.1661 -1e-4,4.2173 0.94663,10.457 2.8402,18.72 4.6475,-9.8116 6.9713,-17.213 6.9714,-22.205 l -0.77459,-5.5513 c -1.3e-4,-3.0123 1.3339,-5.164 4.0021,-6.455 0.9466,-0.51639 1.9794,-0.77458 3.0984,-0.77458 3.0983,0 5.293,1.377 6.5841,4.1312 0.51631,1.0328 0.77451,2.0656 0.77461,3.0984 -1e-4,2.2377 -0.77471,4.0021 -2.3238,5.2931 -2.3239,2.3238 -3.5288,6.1107 -3.6148,11.361 -10e-5,2.2378 0.21505,5.8525 0.6455,10.844 5.5942,-5.7665 8.3914,-10.457 8.3915,-14.072 l -0.64549,-5.0349 c -1.3e-4,-2.8402 1.2909,-4.9488 3.873,-6.3259 1.0327,-0.60248 2.1085,-0.90372 3.2275,-0.90372 2.9262,0 5.1208,1.334 6.5841,4.0021 l 0.77461,2.4529 v 0.77458 c -1e-4,3.5288 -1.9796,6.1968 -5.9386,8.0042 -0.17225,3.7009 -1.5924,10.973 -4.2603,21.818 -0.17225,0.51641 -0.30136,0.98976 -0.38731,1.4201 -1.1e-4,1.2049 -1.3772,3.2705 -4.1312,6.1968 -3.701,3.7009 -5.5514,6.5841 -5.5513,8.6497 -1e-4,0.94672 1.0327,3.4857 3.0984,7.6169 0.34418,0.77461 0.51629,1.9365 0.51639,3.4857 v 0.90369 c -0.08617,0.25819 -0.12921,0.55943 -0.12908,0.90369 v 0.12911 l 0.12908,0.12909 c -1e-4,3.0984 -8.3055,4.8197 -24.916,5.164 h -3.2275 l -5.4222,-0.1291 h -0.12911 c -8.0904,-0.2582 -14.244,-0.94673 -18.461,-2.0656 -2.6681,-0.77458 -4.0021,-1.7643 -4.0021,-2.9693 0.08607,-0.0861 0.08607,-0.60246 0,-1.5492 -0.08608,-0.17213 -0.08608,-0.34427 0,-0.51639 0,-1.9795 0.6455,-4.2603 1.9365,-6.8423 1.0328,-2.0656 1.5492,-3.4857 1.5492,-4.2603 0,-1.3771 -0.73156,-3.0123 -2.1947,-4.9058 l -6.3259,-7.2296 c -0.68852,-0.94673 -1.0328,-1.8504 -1.0328,-2.7111 -2.6681,-10.93 -4.1742,-18.031 -4.5185,-21.301 -0.08606,-0.68854 -0.1291,-1.334 -0.1291,-1.9365 -3.9591,-1.8074 -5.9386,-4.4754 -5.9386,-8.0042 0,-2.8402 1.291,-4.9488 3.873,-6.3259 1.1189,-0.60248 2.2378,-0.90372 3.3566,-0.90372 3.0123,0 5.164,1.3771 6.455,4.1312 0.51639,0.94673 0.77458,1.9795 0.77458,3.0984 l -0.6455,5.0349 c 0,3.7869 2.7541,8.4776 8.2624,14.072 0.43034,-3.7869 0.6455,-7.4017 0.6455,-10.844 0,-4.7336 -0.55943,-7.8751 -1.6783,-9.4243 -0.43034,-0.60246 -1.0758,-1.291 -1.9365,-2.0656 -1.5492,-1.0328 -2.3238,-2.7541 -2.3238,-5.164 0,-3.0123 1.4201,-5.207 4.2603,-6.5841 0.94673,-0.43035 1.9795,-0.6455 3.0984,-0.6455 3.0123,0 5.164,1.377 6.455,4.1312 0.51628,0.94673 0.77448,1.9795 0.77458,3.0984 l -0.77458,5.4222 v 0.1291 c 0,4.9058 2.3237,12.308 6.9714,22.205 1.8073,-7.832 2.711,-14.072 2.7111,-18.72 -1e-4,-3.4426 -0.6456,-6.7132 -1.9365,-9.8116 -0.51649,-1.2049 -0.7747,-2.0656 -0.77458,-2.582 -1.2e-4,-3.0123 1.3769,-5.164 4.1312,-6.455 0.94662,-0.51639 1.9794,-0.77458 3.0984,-0.77458 m 37.31,15.879 c -1.3772,0 -2.3669,0.68854 -2.9693,2.0656 -0.08618,0.34427 -0.12922,0.68852 -0.12911,1.0328 -1.1e-4,1.7213 0.77449,2.7972 2.3238,3.2275 0.25809,0.0861 0.51631,0.12909 0.77461,0.12909 2.1515,0 3.2274,-1.1189 3.2275,-3.3566 -1.1e-4,-2.0656 -1.076,-3.0984 -3.2275,-3.0984 m -16.912,-8.2624 c -1.4632,0 -2.453,0.73157 -2.9693,2.1947 l -0.12909,1.0328 c -1.2e-4,1.5492 0.73144,2.582 2.1947,3.0984 0.25809,0.0861 0.55932,0.12909 0.90369,0.12909 2.2376,0 3.3565,-1.0758 3.3566,-3.2275 1e-4,-2.1517 -1.119,-3.2275 -3.3566,-3.2275 m -41.054,0 c -2.1516,0 -3.2275,1.0758 -3.2275,3.2275 0,2.1517 1.0758,3.2275 3.2275,3.2275 2.0656,0 3.0984,-1.0758 3.0984,-3.2275 0,-2.1517 -1.0328,-3.2275 -3.0984,-3.2275 m -16.912,8.2624 c -2.1516,0 -3.2275,1.0328 -3.2275,3.0984 0,2.2378 1.0758,3.3566 3.2275,3.3566 2.0656,0 3.0984,-1.1189 3.0984,-3.3566 0,-1.4631 -0.73157,-2.4529 -2.1947,-2.9693 -0.25822,-0.0861 -0.55944,-0.12909 -0.90372,-0.12909 m 37.568,8.2624 c -1.205,7.5738 -2.7542,13.039 -4.6476,16.396 l -1.9365,3.0984 v 0.12911 c -0.25832,-0.25822 -1.3772,-1.5492 -3.3566,-3.873 -2.496,-2.9263 -5.121,-8.4776 -7.8751,-16.654 0.17213,1.2049 0.2582,2.4529 0.2582,3.7439 0,4.0451 -0.73157,10.285 -2.1947,18.72 -4.6476,-2.7541 -9.1661,-7.1435 -13.555,-13.168 1.4631,7.4017 2.582,12.264 3.3566,14.588 0.51641,1.7213 1.1619,2.7111 1.9365,2.9693 7.0575,-4.0451 16.396,-6.0677 28.015,-6.0677 11.705,0 21.043,2.0226 28.015,6.0677 1.5491,-0.51639 3.2704,-6.3689 5.164,-17.558 -4.4756,6.1968 -8.951,10.586 -13.426,13.168 -1.4632,-7.4878 -2.1948,-13.383 -2.1947,-17.687 -1.1e-4,-1.1189 0.08594,-2.7111 0.25819,-4.7767 -1.7214,5.164 -3.701,9.7685 -5.9386,13.814 -1.205,1.8074 -2.5391,3.5287 -4.0021,5.164 -0.68863,0.68853 -1.119,1.2049 -1.291,1.5492 l -2.8402,-5.0349 c -0.08615,-0.34426 -0.21526,-0.68853 -0.38728,-1.0328 -0.68864,-1.8935 -1.8075,-6.412 -3.3566,-13.555"
     id="path194" />
  <path
     style="fill:#ffffff;stroke-width:0.200503"
     d="m 35.200339,81.086825 c -5.363862,-0.33926 -9.337591,-1.102101 -10.498728,-2.015452 -0.946275,-0.74434 -0.569179,-1.94611 0.839184,-2.674403 1.536816,-0.794718 4.226184,-1.138512 12.065575,-1.542395 5.014311,-0.258336 15.692184,-0.135826 19.549002,0.224291 3.693732,0.344889 6.995555,1.058669 7.825499,1.691699 1.040236,0.793427 1.221055,1.24995 0.748099,1.888782 -0.757226,1.022807 -3.398705,1.738259 -8.272844,2.240725 -2.690988,0.277409 -18.698749,0.411733 -22.255787,0.186753 z"
     id="path4364" />
  <path
     style="fill:#ffffff;stroke-width:0.200503"
     d="m 25.477918,70.937501 c 0.292999,-0.673678 0.352008,-3.342335 0.104527,-4.727154 -0.133427,-0.746613 -0.449544,-1.662435 -0.702483,-2.035161 l -0.459889,-0.677684 1.129453,-0.123766 c 13.502252,-1.479579 25.431852,-1.481042 38.947426,-0.0048 l 1.126001,0.12299 -0.475121,0.850083 c -0.67406,1.206027 -1.001056,3.711488 -0.712035,5.455675 0.122972,0.742113 0.200685,1.372199 0.172695,1.400189 -0.02799,0.02799 -0.904359,-0.07537 -1.947484,-0.229693 -9.368058,-1.385928 -29.186939,-1.262864 -36.764016,0.228285 -0.509877,0.100342 -0.561484,0.06845 -0.419074,-0.258988 z"
     id="path4366" />
  <path
     style="fill:#ffffff;stroke-width:0.200503"
     d="m 23.019807,58.226922 c -0.914618,-0.367631 -0.343238,-1.893943 1.003629,-2.680967 1.160163,-0.677925 4.039086,-1.614407 6.492893,-2.112066 6.829269,-1.385051 15.602719,-1.558054 25.135273,-0.49564 7.576462,0.844405 11.829653,2.43366 11.829653,4.420289 0,1.200926 -0.105842,1.209551 -8.688914,0.708071 -9.460536,-0.552748 -16.283938,-0.56169 -25.897782,-0.03394 -7.959429,0.436931 -9.209812,0.461528 -9.874752,0.194253 z"
     id="path4368" />
  <path
     style="fill:#ffffff;stroke-width:0.200503"
     d="m 16.28944,52.626024 c -0.576507,-0.68514 -1.271042,-2.69196 -2.118835,-6.122255 -0.808081,-3.269613 -2.091144,-9.527626 -1.976855,-9.641915 0.051,-0.051 0.759596,0.743645 1.574655,1.765879 1.941607,2.435132 5.304425,5.907558 7.19319,7.427645 1.944774,1.565165 4.182767,3.052355 4.346672,2.88845 0.07054,-0.07054 0.338565,-1.370218 0.595613,-2.888176 0.863533,-5.099447 1.501713,-10.753639 1.620688,-14.359079 l 0.118105,-3.579051 0.934611,2.476287 c 2.804703,7.43117 4.374825,10.277374 7.952744,14.416163 l 1.919878,2.220837 1.286052,-2.067792 c 0.707329,-1.137285 1.652352,-3.003692 2.100052,-4.14757 0.878959,-2.245759 2.330099,-7.725284 2.899251,-10.947623 l 0.353212,-1.999759 0.755255,3.342637 c 0.995228,4.404723 1.918874,7.980082 2.455611,9.50549 0.417513,1.186565 3.135377,6.283707 3.342212,6.268054 0.183291,-0.01387 3.290732,-3.798191 4.46422,-5.436641 1.625893,-2.270107 3.869034,-6.949146 5.8902,-12.286555 l 0.683337,-1.804523 -0.117583,2.005025 c -0.06467,1.102765 -0.01863,3.358419 0.102335,5.012565 0.366482,5.011987 1.829536,14.335935 2.249503,14.335935 0.106603,0 1.021179,-0.562671 2.03239,-1.250381 2.235987,-1.520655 7.016335,-6.200559 9.33202,-9.135933 0.896178,-1.136 1.629416,-1.931486 1.629416,-1.767745 0,0.563485 -1.023261,5.842331 -1.617514,8.34451 -0.972298,4.093968 -2.093374,7.155311 -2.850379,7.78357 -0.231585,0.192198 -0.739871,0.02377 -2.572049,-0.852304 C 65.24997,49.44573 58.82131,47.938596 50.742712,47.413732 38.177924,46.597401 25.725087,48.570466 18.401346,52.537997 c -0.693024,0.375435 -1.339143,0.682609 -1.435821,0.682609 -0.09668,0 -0.400915,-0.267563 -0.676085,-0.594582 z"
     id="path4370" />
  <path
     style="fill:#ffffff;stroke-width:0.200503"
     d="m 43.280302,12.927704 c -0.871349,-0.531293 -1.262875,-1.372988 -1.262875,-2.714902 0,-1.4712956 0.415199,-2.2406317 1.46694,-2.7181378 1.649104,-0.7487181 3.704204,-0.2168213 4.25493,1.1012528 0.65723,1.572974 0.209488,3.612909 -0.947869,4.31853 -0.892213,0.543967 -2.629972,0.550528 -3.511126,0.01326 z"
     id="path4372" />
  <path
     style="fill:#ffffff;stroke-width:0.200503"
     d="m 23.358977,17.150804 c -1.622309,-0.524794 -2.069644,-1.275226 -1.956265,-3.281755 0.07403,-1.310221 0.124215,-1.437197 0.81997,-2.074809 0.692111,-0.634272 0.832312,-0.679177 2.120533,-0.679177 1.578408,0 2.285105,0.39186 2.761066,1.530994 0.600675,1.437618 0.140292,3.521232 -0.915884,4.14513 -0.692359,0.408987 -2.117038,0.590062 -2.82942,0.359617 z"
     id="path4374" />
  <path
     style="fill:#ffffff;stroke-width:0.200503"
     d="M 6.2166676,25.337057 C 5.3031987,25.071577 4.7446499,24.347376 4.4799099,23.08522 4.2698086,22.083556 4.2876147,21.847521 4.6374664,20.996679 4.9250339,20.297313 5.2210433,19.942451 5.7300561,19.68686 c 1.4340562,-0.720082 3.3901517,-0.294648 4.2607203,0.92667 0.6167016,0.865169 0.6341306,2.849364 0.032236,3.669875 -0.8073697,1.100618 -2.2605938,1.502892 -3.8063444,1.053652 z"
     id="path4376" />
  <path
     style="fill:#ffffff;stroke-width:0.200503"
     d="m 64.544214,17.120349 c -0.823155,-0.249867 -1.820329,-1.399552 -1.987697,-2.291701 -0.218993,-1.167335 0.07309,-2.117159 0.907728,-2.951793 0.722791,-0.722791 0.827154,-0.761753 2.038521,-0.761042 2.176352,0.0013 3.181504,1.003175 3.181504,3.171201 0,1.111248 -0.589539,2.184234 -1.419454,2.583465 -0.734674,0.353416 -1.997417,0.469391 -2.720602,0.24987 z"
     id="path4378" />
  <path
     style="fill:#ffffff;stroke-width:0.200503"
     d="m 81.317365,25.231852 c -1.091422,-0.473301 -1.568303,-1.046623 -1.825126,-2.194229 -0.214455,-0.958289 -0.195389,-1.140278 0.206426,-1.970316 0.559938,-1.156677 1.45643,-1.731638 2.700013,-1.731638 1.2033,0 2.198742,0.421703 2.661083,1.127325 0.540269,0.824554 0.511772,3.056255 -0.04878,3.820411 -0.851723,1.161081 -2.328715,1.540343 -3.693613,0.948447 z"
     id="path4380" />
  <path
     style="fill:#ffffff;stroke-width:0.200503"
     d="m 43.280302,12.927704 c -0.353045,-0.215264 -0.781619,-0.661577 -0.952387,-0.991807 -0.444558,-0.859678 -0.404648,-2.7692343 0.07429,-3.5546785 0.75791,-1.2429447 3.185404,-1.6359093 4.556406,-0.7375945 1.522841,0.9978041 1.41796,4.304386 -0.167185,5.270823 -0.892213,0.543967 -2.629972,0.550528 -3.511126,0.01326 z"
     id="path4382" />
</svg>
