<?xml version="1.0" encoding="UTF-8" standalone="no"?>
<svg
   xmlns:dc="http://purl.org/dc/elements/1.1/"
   xmlns:cc="http://creativecommons.org/ns#"
   xmlns:rdf="http://www.w3.org/1999/02/22-rdf-syntax-ns#"
   xmlns:svg="http://www.w3.org/2000/svg"
   xmlns="http://www.w3.org/2000/svg"
   xmlns:sodipodi="http://sodipodi.sourceforge.net/DTD/sodipodi-0.dtd"
   xmlns:inkscape="http://www.inkscape.org/namespaces/inkscape"
   width="90"
   height="90"
   version="1.1"
   id="svg196"
   sodipodi:docname="queen_w.svg"
   inkscape:version="1.0.1 (c497b03c, 2020-09-10)">
  <metadata
     id="metadata202">
    <rdf:RDF>
      <cc:Work
         rdf:about="">
        <dc:format>image/svg+xml</dc:format>
        <dc:type
           rdf:resource="http://purl.org/dc/dcmitype/StillImage" />
      </cc:Work>
    </rdf:RDF>
  </metadata>
  <defs
     id="defs200" />
  <sodipodi:namedview
     pagecolor="#ffffff"
     bordercolor="#666666"
     borderopacity="1"
     objecttolerance="10"
     gridtolerance="10"
     guidetolerance="10"
     inkscape:pageopacity="0"
     inkscape:pageshadow="2"
     inkscape:window-width="1128"
     inkscape:window-height="832"
     id="namedview198"
     showgrid="false"
     inkscape:zoom="7.47393"
     inkscape:cx="36.303103"
     inkscape:cy="45"
     inkscape:window-x="0"
     inkscape:window-y="25"
     inkscape:window-maximized="0"
     inkscape:current-layer="svg196" />
  <path
     d="m 42.094105,57.650865 h 5.6804 c 1.2909,0 2.8401,0.043 4.6476,0.12908 l 12.781,0.77461 h 0.12911 c 1.5491,0 2.3237,-0.21518 2.3238,-0.6455 v -0.51641 c -1.2e-4,-2.582 -5.7235,-4.2603 -17.17,-5.0349 -2.0657,-0.17215 -3.8731,-0.25821 -5.4222,-0.25821 -8.4346,0 -14.933,0.86067 -19.494,2.582 -2.0656,0.77458 -3.0984,1.6783 -3.0984,2.7111 v 0.51641 c 0,0.43032 0.77461,0.6455 2.3238,0.6455 l 17.299,-0.90369 m 23.883,5.8095 c -6.7994,-0.86066 -13.771,-1.291 -20.914,-1.291 -7.4879,0 -14.459,0.43034 -20.914,1.291 1.0328,0.86066 1.5492,2.539 1.5492,5.0349 0,1.6353 -0.25819,2.625 -0.77458,2.9693 5.164,-0.94673 11.877,-1.4201 20.14,-1.4201 8.263,0 14.975,0.47337 20.14,1.4201 -0.51651,-0.34427 -0.77471,-1.334 -0.77461,-2.9693 -1e-4,-2.496 0.51631,-4.1742 1.5492,-5.0349 m -20.914,11.103 c -4.3895,0 -9.2953,0.21517 -14.717,0.64551 -4.2173,0.34425 -6.3259,1.334 -6.3259,2.9693 0,2.1516 7.0144,3.2275 21.043,3.2275 14.0286,0 21.043,-1.0758 21.043,-3.2275 -10e-5,-0.68854 -0.55953,-1.334 -1.6783,-1.9365 -3.2706,-1.1189 -9.7256,-1.6783 -19.365,-1.6783 m 0,-67.519 c -2.1518,0 -3.2276,1.0328 -3.2275,3.0984 -1.3e-4,2.2377 1.0757,3.3566 3.2275,3.3566 2.0655,0 3.0983,-1.1189 3.0984,-3.3566 -10e-5,-2.0656 -1.0329,-3.0984 -3.0984,-3.0984 m 0,-3.7439 c 3.0983,0 5.25,1.4201 6.455,4.2603 l 0.6455,2.582 v 0.38731 c -1.1e-4,0.51639 -0.34437,1.5922 -1.0328,3.2275 -1.205,3.5287 -1.8075,6.5841 -1.8074,9.1661 -1e-4,4.2173 0.94663,10.457 2.8402,18.72 4.6475,-9.8116 6.9713,-17.213 6.9714,-22.205 l -0.77459,-5.5513 c -1.3e-4,-3.0123 1.3339,-5.164 4.0021,-6.455 0.9466,-0.51639 1.9794,-0.77458 3.0984,-0.77458 3.0983,0 5.293,1.377 6.5841,4.1312 0.51631,1.0328 0.77451,2.0656 0.77461,3.0984 -1e-4,2.2377 -0.77471,4.0021 -2.3238,5.2931 -2.3239,2.3238 -3.5288,6.1107 -3.6148,11.361 -10e-5,2.2378 0.21505,5.8525 0.6455,10.844 5.5942,-5.7665 8.3914,-10.457 8.3915,-14.072 l -0.64549,-5.0349 c -1.3e-4,-2.8402 1.2909,-4.9488 3.873,-6.3259 1.0327,-0.60248 2.1085,-0.90372 3.2275,-0.90372 2.9262,0 5.1208,1.334 6.5841,4.0021 l 0.77461,2.4529 v 0.77458 c -1e-4,3.5288 -1.9796,6.1968 -5.9386,8.0042 -0.17225,3.7009 -1.5924,10.973 -4.2603,21.818 -0.17225,0.51641 -0.30136,0.98976 -0.38731,1.4201 -1.1e-4,1.2049 -1.3772,3.2705 -4.1312,6.1968 -3.701,3.7009 -5.5514,6.5841 -5.5513,8.6497 -1e-4,0.94672 1.0327,3.4857 3.0984,7.6169 0.34418,0.77461 0.51629,1.9365 0.51639,3.4857 v 0.90369 c -0.08617,0.25819 -0.12921,0.55943 -0.12908,0.90369 v 0.12911 l 0.12908,0.12909 c -1e-4,3.0984 -8.3055,4.8197 -24.916,5.164 h -3.2275 l -5.4222,-0.1291 h -0.12911 c -8.0904,-0.2582 -14.244,-0.94673 -18.461,-2.0656 -2.6681,-0.77458 -4.0021,-1.7643 -4.0021,-2.9693 0.08607,-0.0861 0.08607,-0.60246 0,-1.5492 -0.08608,-0.17213 -0.08608,-0.34427 0,-0.51639 0,-1.9795 0.6455,-4.2603 1.9365,-6.8423 1.0328,-2.0656 1.5492,-3.4857 1.5492,-4.2603 0,-1.3771 -0.73156,-3.0123 -2.1947,-4.9058 l -6.3259,-7.2296 c -0.68852,-0.94673 -1.0328,-1.8504 -1.0328,-2.7111 -2.6681,-10.93 -4.1742,-18.031 -4.5185,-21.301 -0.08606,-0.68854 -0.1291,-1.334 -0.1291,-1.9365 -3.9591,-1.8074 -5.9386,-4.4754 -5.9386,-8.0042 0,-2.8402 1.291,-4.9488 3.873,-6.3259 1.1189,-0.60248 2.2378,-0.90372 3.3566,-0.90372 3.0123,0 5.164,1.3771 6.455,4.1312 0.51639,0.94673 0.77458,1.9795 0.77458,3.0984 l -0.6455,5.0349 c 0,3.7869 2.7541,8.4776 8.2624,14.072 0.43034,-3.7869 0.6455,-7.4017 0.6455,-10.844 0,-4.7336 -0.55943,-7.8751 -1.6783,-9.4243 -0.43034,-0.60246 -1.0758,-1.291 -1.9365,-2.0656 -1.5492,-1.0328 -2.3238,-2.7541 -2.3238,-5.164 0,-3.0123 1.4201,-5.207 4.2603,-6.5841 0.94673,-0.43035 1.9795,-0.6455 3.0984,-0.6455 3.0123,0 5.164,1.377 6.455,4.1312 0.51628,0.94673 0.77448,1.9795 0.77458,3.0984 l -0.77458,5.4222 v 0.1291 c 0,4.9058 2.3237,12.308 6.9714,22.205 1.8073,-7.832 2.711,-14.072 2.7111,-18.72 -1e-4,-3.4426 -0.6456,-6.7132 -1.9365,-9.8116 -0.51649,-1.2049 -0.7747,-2.0656 -0.77458,-2.582 -1.2e-4,-3.0123 1.3769,-5.164 4.1312,-6.455 0.94662,-0.51639 1.9794,-0.77458 3.0984,-0.77458 m 37.31,15.879 c -1.3772,0 -2.3669,0.68854 -2.9693,2.0656 -0.08618,0.34427 -0.12922,0.68852 -0.12911,1.0328 -1.1e-4,1.7213 0.77449,2.7972 2.3238,3.2275 0.25809,0.0861 0.51631,0.12909 0.77461,0.12909 2.1515,0 3.2274,-1.1189 3.2275,-3.3566 -1.1e-4,-2.0656 -1.076,-3.0984 -3.2275,-3.0984 m -16.912,-8.2624 c -1.4632,0 -2.453,0.73157 -2.9693,2.1947 l -0.12909,1.0328 c -1.2e-4,1.5492 0.73144,2.582 2.1947,3.0984 0.25809,0.0861 0.55932,0.12909 0.90369,0.12909 2.2376,0 3.3565,-1.0758 3.3566,-3.2275 1e-4,-2.1517 -1.119,-3.2275 -3.3566,-3.2275 m -41.054,0 c -2.1516,0 -3.2275,1.0758 -3.2275,3.2275 0,2.1517 1.0758,3.2275 3.2275,3.2275 2.0656,0 3.0984,-1.0758 3.0984,-3.2275 0,-2.1517 -1.0328,-3.2275 -3.0984,-3.2275 m -16.912,8.2624 c -2.1516,0 -3.2275,1.0328 -3.2275,3.0984 0,2.2378 1.0758,3.3566 3.2275,3.3566 2.0656,0 3.0984,-1.1189 3.0984,-3.3566 0,-1.4631 -0.73157,-2.4529 -2.1947,-2.9693 -0.25822,-0.0861 -0.55944,-0.12909 -0.90372,-0.12909 m 37.568,8.2624 c -1.205,7.5738 -2.7542,13.039 -4.6476,16.396 l -1.9365,3.0984 v 0.12911 c -0.25832,-0.25822 -1.3772,-1.5492 -3.3566,-3.873 -2.496,-2.9263 -5.121,-8.4776 -7.8751,-16.654 0.17213,1.2049 0.2582,2.4529 0.2582,3.7439 0,4.0451 -0.73157,10.285 -2.1947,18.72 -4.6476,-2.7541 -9.1661,-7.1435 -13.555,-13.168 1.4631,7.4017 2.582,12.264 3.3566,14.588 0.51641,1.7213 1.1619,2.7111 1.9365,2.9693 7.0575,-4.0451 16.396,-6.0677 28.015,-6.0677 11.705,0 21.043,2.0226 28.015,6.0677 1.5491,-0.51639 3.2704,-6.3689 5.164,-17.558 -4.4756,6.1968 -8.951,10.586 -13.426,13.168 -1.4632,-7.4878 -2.1948,-13.383 -2.1947,-17.687 -1.1e-4,-1.1189 0.08594,-2.7111 0.25819,-4.7767 -1.7214,5.164 -3.701,9.7685 -5.9386,13.814 -1.205,1.8074 -2.5391,3.5287 -4.0021,5.164 -0.68863,0.68853 -1.119,1.2049 -1.291,1.5492 l -2.8402,-5.0349 c -0.08615,-0.34426 -0.21526,-0.68853 -0.38728,-1.0328 -0.68864,-1.8935 -1.8075,-6.412 -3.3566,-13.555"
     id="path194" />
</svg>
