<?xml version="1.0" encoding="UTF-8" standalone="no"?>
<svg
   xmlns:dc="http://purl.org/dc/elements/1.1/"
   xmlns:cc="http://creativecommons.org/ns#"
   xmlns:rdf="http://www.w3.org/1999/02/22-rdf-syntax-ns#"
   xmlns:svg="http://www.w3.org/2000/svg"
   xmlns="http://www.w3.org/2000/svg"
   xmlns:sodipodi="http://sodipodi.sourceforge.net/DTD/sodipodi-0.dtd"
   xmlns:inkscape="http://www.inkscape.org/namespaces/inkscape"
   width="90"
   height="90"
   version="1.1"
   id="svg116"
   sodipodi:docname="bishop_b.svg"
   inkscape:version="1.0.1 (c497b03c, 2020-09-10)">
  <metadata
     id="metadata122">
    <rdf:RDF>
      <cc:Work
         rdf:about="">
        <dc:format>image/svg+xml</dc:format>
        <dc:type
           rdf:resource="http://purl.org/dc/dcmitype/StillImage" />
      </cc:Work>
    </rdf:RDF>
  </metadata>
  <defs
     id="defs120" />
  <sodipodi:namedview
     pagecolor="#ffffff"
     bordercolor="#666666"
     borderopacity="1"
     objecttolerance="10"
     gridtolerance="10"
     guidetolerance="10"
     inkscape:pageopacity="0"
     inkscape:pageshadow="2"
     inkscape:window-width="1912"
     inkscape:window-height="1428"
     id="namedview118"
     showgrid="false"
     inkscape:zoom="13.967315"
     inkscape:cx="40.346278"
     inkscape:cy="45"
     inkscape:window-x="0"
     inkscape:window-y="25"
     inkscape:window-maximized="0"
     inkscape:current-layer="svg116" />
  <path
     d="m 38.673705,56.23163 c -4.3895,0 -6.5842,0.68853 -6.5841,2.0656 -1.2e-4,1.2049 1.9364,1.9365 5.8095,2.1947 h 7.1005 c 8.6065,0 12.91,-0.73158 12.91,-2.1947 -1.2e-4,-1.3771 -2.1948,-2.0656 -6.5841,-2.0656 h -12.652 m 0,-8.0042 c -3.787,0 -5.8957,0.43035 -6.3259,1.291 -0.17224,0.17215 -0.25832,0.43034 -0.2582,0.77461 -1.2e-4,0.94673 0.90359,1.5062 2.7111,1.6783 2.2376,0.25819 5.6373,0.3873 10.199,0.3873 4.5617,0 8.0041,-0.12911 10.328,-0.3873 1.7212,-0.17214 2.5819,-0.73157 2.582,-1.6783 -1.2e-4,-1.3771 -2.1948,-2.0656 -6.5841,-2.0656 h -12.652 m 24.013,5.5513 2.582,9.9407 c -1e-4,3.0123 -3.0555,4.7767 -9.1661,5.2931 4.4754,1.7213 8.6496,2.582 12.523,2.582 0.51631,0 3.0553,-0.12911 7.6169,-0.38731 3.7868,0 6.8852,1.9795 9.2952,5.9386 0.34416,0.68852 0.77451,1.4631 1.291,2.3238 l -4.6476,7.1005 c -1.3772,1.7213 -2.8403,2.8402 -4.3894,3.3566 -0.34439,-1.8074 -3.0985,-2.9262 -8.2624,-3.3566 l -3.0984,-0.25819 c -10.586,-0.86066 -17.73,-3.1414 -21.431,-6.8423 -3.3567,3.5287 -8.4777,5.5513 -15.363,6.0677 -1.5492,0.17215 -3.5718,0.43034 -6.0677,0.77461 -6.2829,0.51639 -9.9407,1.4201 -10.973,2.7111 -0.17214,0.25819 -0.30125,0.55943 -0.38731,0.90369 -2.2377,-0.94673 -4.3464,-3.0984 -6.3259,-6.455 -0.77461,-1.3771 -1.6783,-2.7111 -2.7111,-4.0021 2.3238,-4.3033 4.8197,-6.8853 7.4878,-7.746 0.94676,-0.34427 1.9795,-0.5164 3.0984,-0.5164 l 7.6169,0.38731 c 3.959,0 8.1333,-0.86068 12.523,-2.582 -6.1107,-0.51639 -9.1661,-2.2808 -9.1661,-5.2931 0,-0.25819 0.68853,-2.4529 2.0656,-6.5841 0.43032,-1.3771 0.6455,-2.3238 0.6455,-2.8402 -5.2501,-6.3689 -7.8751,-12.006 -7.8751,-16.912 0,-5.6804 2.7972,-10.844 8.3915,-15.492 4.9918,-4.2173 8.6066,-6.455 10.844,-6.7132 -1.8936,-2.3238 -2.8403,-4.7337 -2.8402,-7.2296 -1e-4,-4.0451 2.0225,-6.541 6.0677,-7.4878 0.94662,-0.2581 1.9364,-0.38718 2.9693,-0.38729 4.3032,1.1e-4 7.1004,1.5922 8.3915,4.7767 l 0.6455,2.7111 v 0.3873 c -1e-4,2.4099 -0.94684,4.8197 -2.8402,7.2296 1.6352,0.43033 4.088,1.7644 7.3587,4.0021 7.918,5.5082 11.877,11.576 11.877,18.203 -1e-4,4.9919 -2.5821,10.457 -7.746,16.396 m -15.363,-12.006 v -5.9386 h 4.5185 v -4.9058 h -4.5185 v -5.5513 h -4.6476 v 5.5513 h -4.5185 v 4.9058 h 4.5185 v 5.9386 h 4.6476 m -2.3238,-36.406 c -1.7214,0 -2.7973,0.77458 -3.2275,2.3238 l -0.12908,0.77458 c -1.1e-4,1.6353 0.86055,2.6681 2.582,3.0984 0.25809,0.08607 0.51629,0.12909 0.77461,0.12909 2.1515,0 3.2274,-1.0758 3.2275,-3.2275 -1.1e-4,-2.0656 -1.076,-3.0984 -3.2275,-3.0984"
     id="path114" />
</svg>
