<?xml version="1.0" encoding="UTF-8" standalone="no"?>
<svg
   xmlns:dc="http://purl.org/dc/elements/1.1/"
   xmlns:cc="http://creativecommons.org/ns#"
   xmlns:rdf="http://www.w3.org/1999/02/22-rdf-syntax-ns#"
   xmlns:svg="http://www.w3.org/2000/svg"
   xmlns="http://www.w3.org/2000/svg"
   xmlns:sodipodi="http://sodipodi.sourceforge.net/DTD/sodipodi-0.dtd"
   xmlns:inkscape="http://www.inkscape.org/namespaces/inkscape"
   width="90"
   height="90"
   version="1.1"
   id="svg181"
   sodipodi:docname="pawn_w.svg"
   inkscape:version="1.0.1 (c497b03c, 2020-09-10)">
  <metadata
     id="metadata187">
    <rdf:RDF>
      <cc:Work
         rdf:about="">
        <dc:format>image/svg+xml</dc:format>
        <dc:type
           rdf:resource="http://purl.org/dc/dcmitype/StillImage" />
      </cc:Work>
    </rdf:RDF>
  </metadata>
  <defs
     id="defs185" />
  <sodipodi:namedview
     pagecolor="#ffffff"
     bordercolor="#666666"
     borderopacity="1"
     objecttolerance="10"
     gridtolerance="10"
     guidetolerance="10"
     inkscape:pageopacity="0"
     inkscape:pageshadow="2"
     inkscape:window-width="1179"
     inkscape:window-height="965"
     id="namedview183"
     showgrid="false"
     inkscape:zoom="8.4653696"
     inkscape:cx="37.321658"
     inkscape:cy="45"
     inkscape:window-x="0"
     inkscape:window-y="25"
     inkscape:window-maximized="0"
     inkscape:current-layer="svg181" />
  <path
     d="m 68.04351,77.79125 c -1e-4,-9.037 -2.453,-15.793 -7.3587,-20.269 -1.6354,-1.5492 -3.6579,-3.0123 -6.0677,-4.3894 -3.3567,-1.9795 -5.035,-3.7869 -5.0349,-5.4222 -1e-4,-0.86067 0.86055,-1.8074 2.582,-2.8402 2.668,-1.4631 4.2602,-3.1845 4.7767,-5.164 0.17202,-0.77458 0.25809,-1.7213 0.25819,-2.8402 -1e-4,-3.9591 -2.0227,-7.0575 -6.0677,-9.2952 l -2.3238,-1.6783 c -0.43045,-0.43032 -0.64561,-0.9037 -0.6455,-1.4201 -1.1e-4,-1.4631 0.51628,-2.9263 1.5492,-4.3894 0.68843,-0.94672 1.0327,-2.0656 1.0328,-3.3566 -1e-4,-2.2377 -1.205,-3.873 -3.6148,-4.9058 -0.77471,-0.25821 -1.5493,-0.3873 -2.3238,-0.3873 -2.41,0 -4.1313,1.0758 -5.164,3.2275 -0.34436,0.68854 -0.51651,1.3771 -0.51641,2.0656 -1e-4,0.77461 0.55935,2.2377 1.6783,4.3894 0.68843,1.2049 0.98966,2.3238 0.90372,3.3566 -1.4e-4,1.0328 -0.9899,2.0656 -2.9693,3.0984 -3.9592,2.3238 -5.9387,5.4222 -5.9386,9.2952 -1.3e-4,3.3566 1.6782,6.0247 5.0349,8.0042 1.6352,1.1188 2.4528,2.0656 2.4529,2.8402 -1.1e-4,1.6353 -1.6784,3.4427 -5.0349,5.4222 -6.1968,3.7869 -10.156,8.3915 -11.877,13.814 -0.94673,3.0123 -1.4201,6.6271 -1.4201,10.844 h 46.089 m -50.607,5.164 c -0.08607,-1.0328 -0.12911,-3.0123 -0.12911,-5.9386 0,-10.586 3.0984,-18.504 9.2952,-23.754 2.0656,-1.7213 4.6905,-3.3996 7.8751,-5.0349 -3.2705,-1.0328 -5.4652,-3.5288 -6.5841,-7.4878 -0.43032,-1.291 -0.6455,-2.625 -0.6455,-4.0021 0,-5.7664 2.9263,-9.8977 8.7788,-12.394 -1.3772,-2.496 -2.0657,-4.9488 -2.0656,-7.3587 -1.1e-4,-3.9591 1.9364,-6.8853 5.8095,-8.7788 1.6352,-0.77461 3.3995,-1.1619 5.2931,-1.1619 4.3893,0 7.6168,1.6783 9.6825,5.0349 0.94663,1.4631 1.42,3.0984 1.4201,4.9058 -1e-4,2.3238 -0.77471,4.7767 -2.3238,7.3587 5.9385,2.4099 8.9078,6.541 8.9079,12.394 -1.1e-4,4.5616 -1.6784,8.0042 -5.0349,10.328 -0.68863,0.51641 -1.4632,0.90371 -2.3238,1.1619 7.7459,3.9591 12.781,8.994 15.105,15.105 1.463,3.7869 2.1946,8.3485 2.1947,13.685 -1e-4,2.8402 -0.04314,4.8197 -0.12911,5.9386 h -55.126"
     id="path179" />
</svg>
