<?xml version="1.0" encoding="UTF-8" standalone="no"?>
<svg
   xmlns:dc="http://purl.org/dc/elements/1.1/"
   xmlns:cc="http://creativecommons.org/ns#"
   xmlns:rdf="http://www.w3.org/1999/02/22-rdf-syntax-ns#"
   xmlns:svg="http://www.w3.org/2000/svg"
   xmlns="http://www.w3.org/2000/svg"
   xmlns:sodipodi="http://sodipodi.sourceforge.net/DTD/sodipodi-0.dtd"
   xmlns:inkscape="http://www.inkscape.org/namespaces/inkscape"
   width="90"
   height="90"
   version="1.1"
   id="svg171"
   sodipodi:docname="pawn_b.svg"
   inkscape:version="1.0.1 (c497b03c, 2020-09-10)">
  <metadata
     id="metadata177">
    <rdf:RDF>
      <cc:Work
         rdf:about="">
        <dc:format>image/svg+xml</dc:format>
        <dc:type
           rdf:resource="http://purl.org/dc/dcmitype/StillImage" />
      </cc:Work>
    </rdf:RDF>
  </metadata>
  <defs
     id="defs175" />
  <sodipodi:namedview
     pagecolor="#ffffff"
     bordercolor="#666666"
     borderopacity="1"
     objecttolerance="10"
     gridtolerance="10"
     guidetolerance="10"
     inkscape:pageopacity="0"
     inkscape:pageshadow="2"
     inkscape:window-width="1085"
     inkscape:window-height="941"
     id="namedview173"
     showgrid="false"
     inkscape:zoom="7.4412451"
     inkscape:cx="36.264903"
     inkscape:cy="45"
     inkscape:window-x="0"
     inkscape:window-y="25"
     inkscape:window-maximized="0"
     inkscape:current-layer="svg171" />
  <path
     d="m 17.436975,82.95525 c -0.08604,-1.0328 -0.12908,-3.0554 -0.12908,-6.0677 0,-10.844 3.3566,-18.892 10.07,-24.142 1.9795,-1.6353 4.3893,-3.1414 7.2296,-4.5185 -3.3566,-1.0328 -5.6374,-3.5718 -6.8423,-7.6169 -0.34427,-1.291 -0.51639,-2.625 -0.51639,-4.0021 0,-5.7665 2.9693,-9.8546 8.9079,-12.264 -1.5493,-2.582 -2.3239,-5.0349 -2.3238,-7.3587 -1.1e-4,-3.873 1.8934,-6.7562 5.6804,-8.6497 1.7212,-0.86067 3.5716,-1.291 5.5513,-1.291 4.3032,0 7.4877,1.6783 9.5534,5.0349 0.94662,1.4631 1.42,3.0984 1.4201,4.9058 -1e-4,2.4959 -0.73167,4.9488 -2.1947,7.3587 3.1844,1.291 5.4651,3.0123 6.8423,5.164 1.377,2.3238 2.0655,4.6906 2.0656,7.1005 -1.4e-4,4.4754 -1.5493,7.8751 -4.6476,10.199 -0.77471,0.68854 -1.6354,1.1619 -2.582,1.4201 7.918,4.0451 13.039,9.3382 15.363,15.879 1.2048,3.6148 1.8073,7.8751 1.8074,12.781 -1e-4,3.0123 -0.04314,5.0349 -0.12908,6.0677 h -55.126"
     id="path169" />
</svg>
