<?xml version="1.0" encoding="UTF-8" standalone="no"?>
<svg
   xmlns:dc="http://purl.org/dc/elements/1.1/"
   xmlns:cc="http://creativecommons.org/ns#"
   xmlns:rdf="http://www.w3.org/1999/02/22-rdf-syntax-ns#"
   xmlns:svg="http://www.w3.org/2000/svg"
   xmlns="http://www.w3.org/2000/svg"
   xmlns:sodipodi="http://sodipodi.sourceforge.net/DTD/sodipodi-0.dtd"
   xmlns:inkscape="http://www.inkscape.org/namespaces/inkscape"
   width="90"
   height="90"
   version="1.1"
   id="svg96"
   sodipodi:docname="queen_b.svg"
   inkscape:version="1.0.1 (c497b03c, 2020-09-10)">
  <metadata
     id="metadata102">
    <rdf:RDF>
      <cc:Work
         rdf:about="">
        <dc:format>image/svg+xml</dc:format>
        <dc:type
           rdf:resource="http://purl.org/dc/dcmitype/StillImage" />
      </cc:Work>
    </rdf:RDF>
  </metadata>
  <defs
     id="defs100" />
  <sodipodi:namedview
     pagecolor="#ffffff"
     bordercolor="#666666"
     borderopacity="1"
     objecttolerance="10"
     gridtolerance="10"
     guidetolerance="10"
     inkscape:pageopacity="0"
     inkscape:pageshadow="2"
     inkscape:window-width="1155"
     inkscape:window-height="801"
     id="namedview98"
     showgrid="false"
     inkscape:zoom="4.5468894"
     inkscape:cx="47.075537"
     inkscape:cy="33.789531"
     inkscape:window-x="0"
     inkscape:window-y="25"
     inkscape:window-maximized="0"
     inkscape:current-layer="svg96"
     inkscape:document-rotation="0" />
  <path
     d="m 23.69764,73.14342 c 0,1.3771 0.98976,2.0656 2.9693,2.0656 l 8.9079,-0.6455 7.746,-0.3873 h 1.9365 l 15.105,0.77461 3.0984,0.25819 c 1.9794,0 2.9692,-0.68853 2.9693,-2.0656 -1e-4,-2.4959 -5.7666,-3.873 -17.299,-4.1312 h -4.0021 c -9.7256,0 -16.224,0.73158 -19.494,2.1947 -1.291,0.51641 -1.9365,1.1619 -1.9365,1.9365 m -16.137,-53.964 c -1.6353,0 -2.6681,0.81765 -3.0984,2.4529 -0.08607,0.2582 -0.12911,0.51639 -0.12911,0.77461 0,1.6353 0.81765,2.6681 2.4529,3.0984 0.25819,0.08607 0.51639,0.12911 0.7746,0.12911 2.0656,0 3.0984,-1.0758 3.0984,-3.2275 0,-2.1517 -1.0328,-3.2275 -3.0984,-3.2275 m 16.912,-8.1333 c -2.2377,0 -3.3566,1.0758 -3.3566,3.2275 0,2.1517 1.1188,3.2275 3.3566,3.2275 2.0656,0 3.0984,-1.0758 3.0984,-3.2275 0,-2.1517 -1.0328,-3.2275 -3.0984,-3.2275 m 41.183,0 c -1.4632,0 -2.453,0.73158 -2.9693,2.1947 l -0.12911,1.0328 c -10e-5,2.1517 1.0327,3.2275 3.0984,3.2275 2.1516,0 3.2274,-1.0758 3.2275,-3.2275 1e-4,-2.1517 -1.0759,-3.2275 -3.2275,-3.2275 m 16.783,8.1333 c -2.0657,0 -3.0985,1.0758 -3.0984,3.2275 1e-4,2.1517 1.0327,3.2275 3.0984,3.2275 2.1516,0 3.2274,-1.0758 3.2275,-3.2275 -1.3e-4,-1.6353 -0.81775,-2.6681 -2.4529,-3.0984 -0.2583,-0.08607 -0.51651,-0.12911 -0.7746,-0.12911 m -9.2952,61.71 c -1.1e-4,2.4099 -4.4325,4.0882 -13.297,5.0349 l -12.523,0.77458 h -2.3238 c -10.5,0 -18.504,-0.90369 -24.013,-2.7111 -2.6681,-0.77461 -4.0021,-1.8074 -4.0021,-3.0984 0,-2.4959 0.68853,-5.3361 2.0656,-8.5206 0.94673,-1.8935 1.4201,-3.2275 1.4201,-4.0021 0,-1.6353 -1.9795,-4.8198 -5.9386,-9.5534 -2.1517,-2.4959 -3.3996,-4.2173 -3.7439,-5.164 0,-0.51639 -0.2582,-1.6783 -0.77461,-3.4857 l -1.6783,-6.455 c -1.1188,-4.2173 -1.8504,-8.6927 -2.1947,-13.426 -3.9591,-1.6353 -5.9386,-4.2603 -5.9386,-7.8751 0,-3.0984 1.4201,-5.2931 4.2603,-6.5841 0.94673,-0.43035 1.9795,-0.64552 3.0984,-0.64552 2.8402,0 4.9488,1.291 6.3259,3.873 0.60248,1.1188 0.90371,2.2377 0.90371,3.3566 l -0.6455,4.9058 c 0,3.873 2.7541,8.6067 8.2624,14.201 0.43032,-3.5287 0.6455,-7.2296 0.6455,-11.103 0,-5.7664 -1.0328,-9.4243 -3.0984,-10.973 -0.17213,-0.17215 -0.34428,-0.30123 -0.51639,-0.3873 -1.5492,-0.94674 -2.3238,-2.625 -2.3238,-5.0349 0,-3.1845 1.4631,-5.3792 4.3894,-6.5841 0.94675,-0.43033 1.9365,-0.6455 2.9693,-0.6455 3.0123,0 5.164,1.3771 6.455,4.1312 0.51639,0.94675 0.77448,1.9795 0.7746,3.0984 l -0.90371,5.5513 c 0,4.8197 2.3667,12.178 7.1005,22.076 1.8073,-8.0903 2.711,-14.287 2.7111,-18.59 -10e-5,-3.6148 -0.64562,-6.9284 -1.9365,-9.9407 -0.51652,-1.1189 -0.77471,-1.9795 -0.77461,-2.582 -10e-5,-3.1845 1.42,-5.3792 4.2603,-6.5841 0.94662,-0.43032 1.9364,-0.6455 2.9693,-0.6455 3.0122,0 5.1208,1.4201 6.3259,4.2603 0.43022,0.94673 0.6454,1.9365 0.6455,2.9693 -1e-4,0.17213 -0.73167,2.4529 -2.1947,6.8423 -0.34439,1.1188 -0.51651,3.0123 -0.51641,5.6804 -1e-4,4.3033 0.90359,10.5 2.7111,18.59 4.6475,-9.8116 6.9713,-17.17 6.9714,-22.076 l -0.7746,-5.4222 v -0.12911 c -1.2e-4,-3.1845 1.463,-5.3792 4.3894,-6.5841 0.94662,-0.43033 1.9364,-0.6455 2.9693,-0.6455 3.0122,0 5.1639,1.3771 6.455,4.1312 0.51629,0.94675 0.77449,1.9795 0.77459,3.0984 -10e-5,2.4099 -0.77471,4.1312 -2.3238,5.164 -2.41,1.5492 -3.6149,5.3361 -3.6148,11.361 -1e-4,3.7869 0.21505,7.4448 0.6455,10.974 5.5081,-5.5943 8.2623,-10.328 8.2624,-14.201 l -0.6455,-4.9058 c -1e-4,-3.0123 1.377,-5.164 4.1312,-6.455 0.94662,-0.51639 1.9794,-0.7746 3.0984,-0.7746 3.0983,0 5.293,1.3771 6.5841,4.1312 l 0.7746,2.4529 v 0.6455 c -1e-4,3.4426 -1.9796,6.0677 -5.9386,7.8751 -0.51651,5.9386 -1.9796,13.211 -4.3894,21.818 -0.17223,0.68854 -0.25831,1.2049 -0.2582,1.5492 -1.1e-4,0.60247 -0.64561,1.5922 -1.9365,2.9693 l -1.5492,1.9365 c -4.1313,4.7337 -6.1969,8.0042 -6.1968,9.8116 -10e-5,0.51639 1.0327,3.1845 3.0984,8.0042 0.34417,1.7213 0.51628,3.2275 0.51639,4.5185 m -28.015,-73.845 c -1.6354,0 -2.6682,0.81764 -3.0984,2.4529 -0.08618,0.2582 -0.12919,0.51639 -0.12908,0.77459 -1.1e-4,1.6353 0.81751,2.6681 2.4529,3.0984 0.25809,0.08607 0.51631,0.12911 0.77461,0.12911 2.0655,0 3.0983,-1.0758 3.0984,-3.2275 -1.2e-4,-1.5492 -0.73167,-2.582 -2.1947,-3.0984 -0.2583,-0.08606 -0.55953,-0.1291 -0.90369,-0.1291 m 23.238,50.349 c -1e-4,-2.7541 -7.7461,-4.1312 -23.238,-4.1312 -15.578,0 -23.367,1.4201 -23.367,4.2603 0,1.2049 1.1188,1.8074 3.3566,1.8074 2.582,0 5.8095,-0.21516 9.6825,-0.6455 l 8.3915,-0.25819 h 2.0656 c 2.4097,0 6.9713,0.21515 13.685,0.6455 l 6.3259,0.25819 c 2.0655,0 3.0983,-0.6455 3.0984,-1.9365"
     id="path94" />
  <path
     style="fill:#ffffff;stroke-width:0.219931"
     d="m 25.129981,74.888486 c -0.992667,-0.286318 -1.583268,-1.466322 -1.144368,-2.286414 0.653433,-1.220952 4.360804,-2.386039 9.564194,-3.005667 3.341852,-0.397953 21.172833,-0.400063 24.082397,-0.0029 4.726311,0.645235 7.791501,1.626505 8.351965,2.673742 0.411325,0.768568 0.188388,1.781716 -0.505574,2.29761 -0.769313,0.571909 -0.585422,0.572855 -12.135037,-0.06244 -9.659996,-0.531357 -12.007263,-0.498754 -22.652849,0.314645 -4.690468,0.358385 -4.570981,0.356851 -5.560728,0.07138 z"
     id="path3782" />
  <path
     style="fill:#ffffff;stroke-width:0.219931"
     d="m 25.129981,74.888486 c -0.941873,-0.271667 -1.56633,-1.449046 -1.197677,-2.258152 0.544365,-1.194751 4.408016,-2.413575 9.617503,-3.033929 3.341852,-0.397953 21.172833,-0.400063 24.082397,-0.0029 4.726311,0.645235 7.791501,1.626505 8.351965,2.673742 0.411325,0.768568 0.188388,1.781716 -0.505574,2.29761 -0.770551,0.57283 -0.58816,0.573736 -12.228575,-0.06077 -9.754396,-0.531699 -11.469304,-0.508038 -22.449345,0.309739 -4.831752,0.359861 -4.688261,0.357973 -5.670694,0.07461 z"
     id="path3784" />
  <path
     style="fill:#ffffff;stroke-width:0.219931"
     d="m 23.719439,59.100801 c -1.508845,-0.308361 -2.138192,-1.189457 -1.597054,-2.235903 1.274207,-2.464043 10.893162,-3.717127 26.272735,-3.422611 11.643818,0.222977 17.280649,1.048911 19.163712,2.807955 0.852869,0.796698 0.811769,1.801413 -0.101438,2.479664 -0.564936,0.419588 -0.87524,0.456841 -3.408924,0.409262 -1.533077,-0.02879 -5.558536,-0.213708 -8.945467,-0.410931 -6.537654,-0.380693 -19.611772,-0.322771 -23.422606,0.103768 -2.803534,0.313794 -7.040736,0.45686 -7.960958,0.268796 z"
     id="path3786" />
  <path
     style="fill:#ffffff;stroke-width:0.219931"
     d="m 22.512332,16.865824 c -0.934948,-0.570079 -1.200091,-1.130279 -1.200091,-2.535586 0,-1.566499 0.455972,-2.39188 1.566934,-2.836399 1.573374,-0.62954 3.346055,-0.28806 4.044492,0.779109 0.934488,1.427838 0.516835,4.041166 -0.750591,4.696578 C 25.263278,17.44 23.365848,17.38625 22.512332,16.865824 Z"
     id="path3788" />
  <path
     style="fill:#ffffff;stroke-width:0.219931"
     d="M 6.0039406,25.032651 C 4.5584634,24.261523 4.099803,22.785684 4.808043,21.18459 c 0.5217321,-1.179462 1.2492835,-1.711032 2.5182162,-1.839883 1.9962544,-0.202703 3.3595568,1.251767 3.1622428,3.373711 -0.178102,1.91534 -1.0276178,2.722666 -2.8458685,2.704533 -0.5083962,-0.0051 -1.245808,-0.180705 -1.6386929,-0.3903 z"
     id="path3790" />
  <path
     style="fill:#ffffff;stroke-width:0.219931"
     d="m 43.531493,12.909035 c -2.540532,-1.382818 -1.632006,-5.400864 1.282579,-5.6723322 0.844653,-0.078672 1.203474,0.00394 1.821604,0.4193754 1.652135,1.1103833 1.973988,3.4010498 0.681169,4.8479658 -0.510819,0.571705 -0.796548,0.692211 -1.798859,0.758663 -0.881866,0.05847 -1.398194,-0.03346 -1.986493,-0.353672 z"
     id="path3792" />
  <path
     style="fill:#ffffff;stroke-width:0.219931"
     d="m 64.010191,17.013523 c -1.257252,-0.628208 -1.688121,-2.851956 -0.843701,-4.354399 0.752893,-1.339592 2.015684,-1.774764 3.751297,-1.292738 1.993629,0.553684 2.509913,3.827187 0.839609,5.323543 -0.57175,0.512208 -0.868207,0.604313 -1.936248,0.601567 -0.693621,-0.0018 -1.508552,-0.126871 -1.810957,-0.277973 z"
     id="path3794" />
  <path
     style="fill:#ffffff;stroke-width:0.219931"
     d="m 80.689319,25.096602 c -1.279197,-0.694762 -1.635072,-3.497729 -0.609602,-4.801401 0.874887,-1.11224 3.059067,-1.27771 4.271972,-0.323639 0.904914,0.711805 1.281093,1.653176 1.139241,2.850896 -0.145804,1.231083 -0.594442,2.002277 -1.370524,2.355884 -0.76746,0.349678 -2.722516,0.303102 -3.431087,-0.08174 z"
     id="path3796" />
</svg>
