<?xml version="1.0" encoding="UTF-8" standalone="no"?>
<svg
   xmlns:dc="http://purl.org/dc/elements/1.1/"
   xmlns:cc="http://creativecommons.org/ns#"
   xmlns:rdf="http://www.w3.org/1999/02/22-rdf-syntax-ns#"
   xmlns:svg="http://www.w3.org/2000/svg"
   xmlns="http://www.w3.org/2000/svg"
   xmlns:sodipodi="http://sodipodi.sourceforge.net/DTD/sodipodi-0.dtd"
   xmlns:inkscape="http://www.inkscape.org/namespaces/inkscape"
   width="90"
   height="90"
   version="1.1"
   id="svg12"
   sodipodi:docname="king_b.svg"
   inkscape:version="1.0.1 (c497b03c, 2020-09-10)">
  <metadata
     id="metadata18">
    <rdf:RDF>
      <cc:Work
         rdf:about="">
        <dc:format>image/svg+xml</dc:format>
        <dc:type
           rdf:resource="http://purl.org/dc/dcmitype/StillImage" />
      </cc:Work>
    </rdf:RDF>
  </metadata>
  <defs
     id="defs16" />
  <sodipodi:namedview
     pagecolor="#ffffff"
     bordercolor="#666666"
     borderopacity="1"
     objecttolerance="10"
     gridtolerance="10"
     guidetolerance="10"
     inkscape:pageopacity="0"
     inkscape:pageshadow="2"
     inkscape:window-width="2336"
     inkscape:window-height="1441"
     id="namedview14"
     showgrid="false"
     inkscape:zoom="10.609248"
     inkscape:cx="50.711189"
     inkscape:cy="47.477268"
     inkscape:window-x="0"
     inkscape:window-y="25"
     inkscape:window-maximized="0"
     inkscape:current-layer="svg12"
     inkscape:document-rotation="0" />
  <path
     d="m 48.28864,55.07078 c 0,1.5492 -1.0758,2.3238 -3.2275,2.3238 -2.4099,0 -3.6148,-0.77459 -3.6148,-2.3238 0,-7.1435 -2.3668,-12.953 -7.100501,-17.428 -4.2173,-3.7869 -8.3054,-5.6804 -12.263999,-5.6804 -5.852501,0 -9.5104,2.3238 -10.973,6.9714 l -0.5164,3.4857 v 0.2582 c 0,3.4426 2.539,8.2194 7.6169,14.33 1.377099,1.5492 2.538999,2.7541 3.4857,3.6148 1.3771,1.1188 3.657799,1.6783 6.842299,1.6783 3.3566,0 8.778801,-0.6455 16.267001,-1.9365 7.5739,1.291 13.039,1.9365 16.396,1.9365 3.2705,0 5.5513,-0.55943 6.8423,-1.6783 3.6148,-3.1845 6.6271,-7.0575 9.037,-11.619 1.3771,-2.582 2.0656,-4.6906 2.0656,-6.3259 0,-5.4222 -2.4529,-8.8218 -7.3587,-10.199 -1.291,-0.34427 -2.6681,-0.51641 -4.1312,-0.51641 -3.959,0 -8.0042,1.9365 -12.135,5.8095 -4.8197,4.3033 -7.2296,10.07 -7.2296,17.299 m 28.015,-12.394 c 0,3.4426 -2.3668,7.4878 -7.1005,12.135 l -3.3566,2.8402 -1.291,0.77458 c -1.6353,0.2582 -3.3566,0.3873 -5.164,0.3873 -5.3361,0 -8.0042,-1.0758 -8.0042,-3.2275 0.17213,-6.6271 2.1517,-11.791 5.9386,-15.492 3.2705,-3.2706 6.6271,-4.9058 10.07,-4.9058 4.3894,0 7.1866,1.5922 8.3915,4.7767 l 0.51641,2.7111 m -12.264,32.791 c 0,-2.2377 -6.3259,-3.3566 -18.978,-3.3566 -3.4427,0 -6.498,0.12909 -9.166101,0.3873 l -3.0984,0.2582 c -4.6476,0.60247 -6.9714,1.4631 -6.9714,2.582 0,1.291 1.1619,1.9365 3.4857,1.9365 l 15.621001,-1.291 15.492,1.291 c 2.4098,0 3.6148,-0.60246 3.6148,-1.8074 m 7.2296,3.0984 c -0.17214,5.8525 -8.9509,8.7788 -26.336,8.7788 -17.213001,0 -25.949,-2.9263 -26.207,-8.7788 -0.08607,-5.5083 -0.9037,-10.414 -2.452901,-14.717 -0.946729,-2.3238 -2.754099,-5.2931 -5.422199,-8.9079 -3.3566,-4.5615 -5.0349,-8.6067 -5.0349,-12.135 0,-5.5083 2.3668,-9.7686 7.1005,-12.780999 2.6681,-1.7213 5.6374,-2.582 8.907899,-2.582 4.4755,0 8.735801,1.6353 12.781,4.905799 0,-3.959099 0.3873,-6.670199 1.1619,-8.133299 0.60246,-1.635301 2.582001,-3.6148 5.938601,-5.9386 V 15.30735 l -5.293101,-3.2275 v -4.6476 h 4.776701 l 1.5492,-4.7767 h 4.3894 l 1.6783,4.7767 h 4.6476 v 4.6476 l -5.164,3.2275 v 2.969301 c 3.2705,2.409899 5.2931,4.4755 6.0677,6.1968 l 0.9037,3.7439 c 0.0861,1.0328 0.17214,2.4099 0.2582,4.131199 4.0451,-3.270499 8.2194,-4.905799 12.523,-4.905799 5.7664,0 10.242,2.1947 13.426,6.584099 1.8074,2.582 2.7111,5.5083 2.7111,8.7788 0,3.5287 -1.6783,7.6169 -5.0349,12.264 l -2.9693,4.1312 c -3.1844,4.8197 -4.8197,11.275 -4.9058,19.365 m -57.708,-35.89 c 0,-3.6148 1.8074,-5.9386 5.4222,-6.9714 1.032799,-0.34428 2.1086,-0.51641 3.227499,-0.51641 3.6148,0 7.0575,1.6353 10.328,4.9058 3.7009,3.7869 5.637401,8.9509 5.809501,15.492 0.0861,1.8935 -1.893501,2.9693 -5.938601,3.2275 h -1.9365 c -1.721299,0 -3.4857,-0.1291 -5.2931,-0.3873 -2.840199,-1.3771 -5.680399,-4.0882 -8.5206,-8.1333 -2.065599,-3.0123 -3.098399,-5.5513 -3.098399,-7.6169"
     id="path10"
     style="stroke-width:0.999998" />
  <path
     style="fill:#ffffff;stroke-width:0.0942574"
     d="m 26.675555,62.177277 c -1.670251,-0.15034 -2.9487,-0.472418 -4.005939,-1.00921 -0.552709,-0.280628 -0.938139,-0.614545 -2.374651,-2.057281 -3.747265,-3.763499 -7.388864,-8.969117 -8.783179,-12.555438 -0.875017,-2.250633 -0.989851,-3.2972 -0.633294,-5.771654 0.258078,-1.791021 0.437995,-2.457355 0.928591,-3.439095 1.386587,-2.774722 3.796562,-4.462693 7.280753,-5.099515 1.434745,-0.262235 4.286121,-0.242862 5.578945,0.0379 3.315523,0.720043 6.842706,2.753936 9.898777,5.707972 1.881843,1.819014 3.163202,3.545582 4.307348,5.803941 1.57021,3.099344 2.500826,7.021525 2.506318,10.563156 0.0025,1.61727 0.239468,2.122786 1.22583,2.615111 1.124014,0.561033 3.351905,0.627907 4.461439,0.133918 0.95101,-0.42341 1.287647,-1.139512 1.289271,-2.742572 0.0019,-1.858789 0.355697,-4.394518 0.891578,-6.389789 0.983258,-3.661011 3.002875,-7.011128 5.871877,-9.740198 3.753367,-3.570301 7.298235,-5.567139 10.800824,-6.084146 2.569984,-0.379349 5.832384,0.112539 8.025592,1.210057 1.537893,0.769588 3.042792,2.15125 3.79103,3.480581 1.210363,2.150349 1.677655,5.596365 1.064973,7.853575 -0.738179,2.719561 -2.957266,6.791279 -5.58851,10.254146 -1.786983,2.35177 -4.71616,5.398072 -5.850756,6.0847 -1.011589,0.612187 -2.37694,0.966783 -4.444851,1.154375 -2.887356,0.261927 -8.469376,-0.286497 -16.738425,-1.64452 l -1.374471,-0.22573 -1.924538,0.319684 c -7.675016,1.274891 -13.256739,1.80536 -16.204532,1.540028 z m 7.681977,-3.525967 c 2.165787,-0.395074 3.34717,-1.012531 3.824719,-1.999016 0.196604,-0.406128 0.205476,-0.515793 0.154082,-1.904569 -0.260176,-7.03053 -2.914984,-12.668132 -7.752782,-16.463378 -3.523282,-2.764011 -7.434,-3.73693 -11.12981,-2.768906 -2.855332,0.747882 -4.600446,2.10677 -5.435754,4.232721 -0.543992,1.384518 -0.632492,3.372159 -0.219174,4.922465 1.229615,4.612137 6.780926,11.497934 10.944466,13.575419 0.499729,0.249351 1.434193,0.396576 3.442993,0.542445 1.682573,0.122179 5.175035,0.04454 6.17126,-0.137181 z m 28.908451,-0.01324 c 1.274218,-0.14606 1.354576,-0.168233 1.968167,-0.543079 0.953294,-0.582369 3.73901,-2.977105 5.131089,-4.41093 3.481658,-3.586069 5.534728,-7.057821 5.90364,-9.983091 0.105043,-0.832932 0.0958,-0.979282 -0.145434,-2.303307 -0.291112,-1.597773 -0.665384,-2.510202 -1.420575,-3.463187 -1.061592,-1.339638 -2.839961,-2.273911 -4.998818,-2.626148 -1.143034,-0.186496 -3.503872,-0.161169 -4.477225,0.04803 -2.817966,0.605661 -5.341072,2.117455 -7.993869,4.789762 -2.970877,2.99273 -4.694611,6.485953 -5.478258,11.101941 -0.246813,1.453828 -0.411161,3.389425 -0.370105,4.35891 0.02856,0.674436 0.07211,0.849945 0.294139,1.185333 0.725984,1.096655 2.572687,1.768181 5.489086,1.99602 1.412897,0.110381 4.48469,0.03469 6.098163,-0.150256 z"
     id="path838" />
  <path
     style="fill:#ffffff;stroke-width:0.0942574"
     d="M 26.617926,62.180105 C 24.764183,61.99937 23.382269,61.605125 22.279402,60.94237 21.216916,60.303883 18.184149,57.006301 16.00713,54.122414 12.573066,49.573328 10.644508,45.485773 10.653571,42.775616 c 0.0028,-0.826337 0.519348,-3.959281 0.747861,-4.535572 0.695677,-1.754435 1.940142,-3.376144 3.303435,-4.304826 1.124797,-0.766218 2.743836,-1.390542 4.382969,-1.690134 1.434745,-0.262235 4.286121,-0.242862 5.578945,0.0379 3.315523,0.720043 6.842706,2.753936 9.898777,5.707972 1.966068,1.900427 3.244411,3.649162 4.413776,6.037915 1.529941,3.12533 2.215318,5.988059 2.38977,9.981737 0.06899,1.579451 0.09613,1.771083 0.304164,2.148317 0.470697,0.853506 1.619917,1.267309 3.476735,1.251881 1.307576,-0.01086 2.008685,-0.219799 2.567,-0.764978 0.481943,-0.470605 0.637489,-1.026133 0.638761,-2.281318 0.0034,-3.400824 0.856208,-7.138059 2.313546,-10.139126 1.265155,-2.605305 3.015767,-4.785964 5.792639,-7.215629 3.130545,-2.739117 6.37019,-4.403581 9.458094,-4.859378 2.569984,-0.379349 5.832384,0.112539 8.025592,1.210057 1.537893,0.769588 3.042792,2.15125 3.79103,3.480581 1.210363,2.150349 1.677655,5.596365 1.064973,7.853575 -0.759062,2.796497 -3.289413,7.371669 -5.905133,10.677174 -1.798952,2.273351 -4.498075,5.034676 -5.534133,5.661672 -1.456505,0.881438 -4.112394,1.329538 -7.131187,1.203168 -3.390858,-0.141946 -8.469531,-0.754741 -14.120453,-1.703781 -0.741717,-0.124568 -1.399162,-0.209032 -1.46099,-0.187699 -0.26,0.08971 -6.319398,1.007604 -8.359933,1.266381 -4.346376,0.5512 -7.779946,0.753055 -9.671883,0.568596 z m 6.615711,-3.398077 c 2.685301,-0.261802 4.402165,-1.00092 4.949023,-2.130578 0.197386,-0.407745 0.205874,-0.513794 0.152453,-1.90457 -0.177284,-4.615355 -1.429059,-8.770014 -3.624451,-12.02961 -2.626329,-3.899427 -6.618111,-6.720492 -10.485799,-7.410508 -0.882219,-0.157392 -3.158317,-0.159259 -3.911681,-0.0032 -1.083726,0.224481 -2.667908,0.782325 -3.389564,1.193578 -2.083724,1.187461 -3.111985,2.813063 -3.346358,5.290336 -0.113861,1.203488 0.01194,2.244685 0.425966,3.525381 1.414935,4.376831 6.651482,10.768564 10.472498,12.782736 0.632292,0.333301 0.877641,0.405989 1.701306,0.504042 2.238096,0.266434 5.36552,0.347273 7.056607,0.182401 z m 30.013784,-0.142275 c 1.220107,-0.140089 1.301569,-0.163237 1.979406,-0.562459 0.766642,-0.451525 3.245838,-2.51243 4.510958,-3.749869 1.660062,-1.623739 3.530079,-3.896733 4.523065,-5.497757 1.109132,-1.788288 1.813738,-3.589053 2.008883,-5.134115 0.108283,-0.857323 0.100791,-0.957462 -0.178555,-2.386871 -0.325263,-1.664372 -0.639637,-2.428249 -1.388653,-3.374202 -1.060514,-1.339354 -2.840874,-2.274638 -4.998473,-2.625867 -1.106448,-0.180116 -3.40099,-0.158785 -4.408878,0.04099 -2.846688,0.564238 -5.53869,2.197946 -8.273869,5.021202 -0.547156,0.564776 -1.236241,1.34853 -1.531298,1.741677 -2.193372,2.922537 -3.510221,6.555512 -3.977434,10.973105 -0.168296,1.591263 -0.179937,2.772091 -0.03219,3.265222 0.413477,1.380063 2.515243,2.218208 6.205854,2.474776 0.997447,0.06934 4.299895,-0.04101 5.561185,-0.185828 z"
     id="path840" />
  <path
     style="fill:#ffffff;stroke-width:0.0942574"
     d="m 28.206976,77.163293 c -0.845725,-0.104153 -1.504941,-0.37982 -1.911591,-0.799377 -0.253002,-0.261031 -0.318337,-0.413132 -0.351584,-0.818487 -0.05437,-0.662863 0.141698,-0.902664 1.137674,-1.391456 1.499758,-0.736031 3.860469,-1.182741 8.218631,-1.555187 3.845905,-0.328668 6.169528,-0.425823 10.179798,-0.425636 11.366704,5.3e-4 17.62795,0.991684 18.425328,2.916727 0.277323,0.669514 -0.205209,1.459563 -1.094711,1.792368 -1.12722,0.421747 -1.340065,0.415465 -9.908864,-0.29245 l -7.9422,-0.656149 -7.516011,0.618972 c -4.133806,0.340434 -7.749298,0.636047 -8.034426,0.656918 -0.285129,0.02087 -0.826049,6.1e-5 -1.202044,-0.04624 z"
     id="path842" />
</svg>
