<?xml version="1.0" encoding="UTF-8" standalone="no"?>
<svg
   xmlns:dc="http://purl.org/dc/elements/1.1/"
   xmlns:cc="http://creativecommons.org/ns#"
   xmlns:rdf="http://www.w3.org/1999/02/22-rdf-syntax-ns#"
   xmlns:svg="http://www.w3.org/2000/svg"
   xmlns="http://www.w3.org/2000/svg"
   xmlns:sodipodi="http://sodipodi.sourceforge.net/DTD/sodipodi-0.dtd"
   xmlns:inkscape="http://www.inkscape.org/namespaces/inkscape"
   width="90"
   height="90"
   version="1.1"
   id="svg181"
   sodipodi:docname="pawn_w.svg"
   inkscape:version="1.0.1 (c497b03c, 2020-09-10)">
  <metadata
     id="metadata187">
    <rdf:RDF>
      <cc:Work
         rdf:about="">
        <dc:format>image/svg+xml</dc:format>
        <dc:type
           rdf:resource="http://purl.org/dc/dcmitype/StillImage" />
      </cc:Work>
    </rdf:RDF>
  </metadata>
  <defs
     id="defs185" />
  <sodipodi:namedview
     pagecolor="#ffffff"
     bordercolor="#666666"
     borderopacity="1"
     objecttolerance="10"
     gridtolerance="10"
     guidetolerance="10"
     inkscape:pageopacity="0"
     inkscape:pageshadow="2"
     inkscape:window-width="1179"
     inkscape:window-height="965"
     id="namedview183"
     showgrid="false"
     inkscape:zoom="6.7442974"
     inkscape:cx="37.321658"
     inkscape:cy="45"
     inkscape:window-x="0"
     inkscape:window-y="25"
     inkscape:window-maximized="0"
     inkscape:current-layer="svg181"
     inkscape:document-rotation="0" />
  <path
     d="m 68.04351,77.79125 c -1e-4,-9.037 -2.453,-15.793 -7.3587,-20.269 -1.6354,-1.5492 -3.6579,-3.0123 -6.0677,-4.3894 -3.3567,-1.9795 -5.035,-3.7869 -5.0349,-5.4222 -1e-4,-0.86067 0.86055,-1.8074 2.582,-2.8402 2.668,-1.4631 4.2602,-3.1845 4.7767,-5.164 0.17202,-0.77458 0.25809,-1.7213 0.25819,-2.8402 -1e-4,-3.9591 -2.0227,-7.0575 -6.0677,-9.2952 l -2.3238,-1.6783 c -0.43045,-0.43032 -0.64561,-0.9037 -0.6455,-1.4201 -1.1e-4,-1.4631 0.51628,-2.9263 1.5492,-4.3894 0.68843,-0.94672 1.0327,-2.0656 1.0328,-3.3566 -1e-4,-2.2377 -1.205,-3.873 -3.6148,-4.9058 -0.77471,-0.25821 -1.5493,-0.3873 -2.3238,-0.3873 -2.41,0 -4.1313,1.0758 -5.164,3.2275 -0.34436,0.68854 -0.51651,1.3771 -0.51641,2.0656 -1e-4,0.77461 0.55935,2.2377 1.6783,4.3894 0.68843,1.2049 0.98966,2.3238 0.90372,3.3566 -1.4e-4,1.0328 -0.9899,2.0656 -2.9693,3.0984 -3.9592,2.3238 -5.9387,5.4222 -5.9386,9.2952 -1.3e-4,3.3566 1.6782,6.0247 5.0349,8.0042 1.6352,1.1188 2.4528,2.0656 2.4529,2.8402 -1.1e-4,1.6353 -1.6784,3.4427 -5.0349,5.4222 -6.1968,3.7869 -10.156,8.3915 -11.877,13.814 -0.94673,3.0123 -1.4201,6.6271 -1.4201,10.844 h 46.089 m -50.607,5.164 c -0.08607,-1.0328 -0.12911,-3.0123 -0.12911,-5.9386 0,-10.586 3.0984,-18.504 9.2952,-23.754 2.0656,-1.7213 4.6905,-3.3996 7.8751,-5.0349 -3.2705,-1.0328 -5.4652,-3.5288 -6.5841,-7.4878 -0.43032,-1.291 -0.6455,-2.625 -0.6455,-4.0021 0,-5.7664 2.9263,-9.8977 8.7788,-12.394 -1.3772,-2.496 -2.0657,-4.9488 -2.0656,-7.3587 -1.1e-4,-3.9591 1.9364,-6.8853 5.8095,-8.7788 1.6352,-0.77461 3.3995,-1.1619 5.2931,-1.1619 4.3893,0 7.6168,1.6783 9.6825,5.0349 0.94663,1.4631 1.42,3.0984 1.4201,4.9058 -1e-4,2.3238 -0.77471,4.7767 -2.3238,7.3587 5.9385,2.4099 8.9078,6.541 8.9079,12.394 -1.1e-4,4.5616 -1.6784,8.0042 -5.0349,10.328 -0.68863,0.51641 -1.4632,0.90371 -2.3238,1.1619 7.7459,3.9591 12.781,8.994 15.105,15.105 1.463,3.7869 2.1946,8.3485 2.1947,13.685 -1e-4,2.8402 -0.04314,4.8197 -0.12911,5.9386 h -55.126"
     id="path179" />
  <path
     style="fill:#ffffff;stroke-width:0.148273"
     d="m 22.095334,75.581392 c 0.338022,-7.762935 2.334343,-12.829486 6.848876,-17.382063 1.80845,-1.82369 3.277945,-2.976065 6.375757,-4.999855 3.745288,-2.446786 4.96279,-3.771563 4.965768,-5.403312 0.0013,-0.695283 -0.05716,-0.827517 -0.663683,-1.502121 -0.365791,-0.406847 -1.283232,-1.160539 -2.03876,-1.674872 -0.755527,-0.514333 -1.782822,-1.348855 -2.282879,-1.854497 -2.756081,-2.78686 -3.192858,-7.237404 -1.065924,-10.861233 0.779099,-1.327413 2.646173,-3.067578 4.534854,-4.226612 1.712408,-1.050858 2.771048,-2.022053 2.940633,-2.697732 0.05414,-0.215713 0.06409,-0.820036 0.02212,-1.34294 -0.06263,-0.780225 -0.262467,-1.343018 -1.114263,-3.138052 -1.249465,-2.633062 -1.368622,-2.97747 -1.368622,-3.955839 0,-0.560851 0.133316,-1.038676 0.507838,-1.820173 0.982027,-2.049146 2.438735,-3.01996 4.696304,-3.129825 4.020253,-0.195647 6.826729,2.750999 6.073917,6.377278 -0.104057,0.50124 -0.456175,1.304907 -0.875586,1.998421 -1.096759,1.813539 -1.398071,2.629123 -1.47387,3.989428 -0.06492,1.165065 -0.0543,1.212502 0.381573,1.705144 0.449827,0.50841 1.549621,1.321005 3.552073,2.624487 2.292043,1.491991 4.06851,3.714759 4.627247,5.789748 0.312799,1.161646 0.42741,2.861092 0.29087,4.312996 -0.249813,2.656395 -1.299156,4.061035 -4.705515,6.298761 -2.357163,1.548482 -2.924976,2.230454 -2.780125,3.33907 0.202857,1.552576 1.798795,3.16475 5.263364,5.31691 3.141194,1.951284 4.859117,3.275978 6.611268,5.097965 4.125598,4.290031 6.0353,9.455354 6.528401,17.657875 l 0.09582,1.593939 H 45.023062 22.003332 Z"
     id="path3212" />
  <path
     style="fill:#ffffff;stroke-width:0.148273"
     d="m 22.095728,75.581392 c 0.272393,-6.228996 1.564839,-10.550497 4.297845,-14.370534 2.133157,-2.9816 4.251949,-4.901449 8.581525,-7.775764 1.52288,-1.011009 3.146089,-2.182953 3.607132,-2.604319 1.498765,-1.369788 2.061046,-2.858545 1.493871,-3.955343 -0.293493,-0.567551 -1.295482,-1.460637 -2.686715,-2.394705 -3.250695,-2.182503 -4.713969,-4.934729 -4.469023,-8.405642 0.09782,-1.386097 0.582782,-2.925596 1.314126,-4.171646 0.746749,-1.272295 2.651058,-3.071784 4.342161,-4.103155 1.701353,-1.03762 2.781062,-1.957734 3.044982,-2.594891 0.118181,-0.285317 0.160857,-0.825109 0.115429,-1.460025 -0.06138,-0.857831 -0.226617,-1.3359 -1.113293,-3.220964 -1.260069,-2.678891 -1.374556,-3.010562 -1.374556,-3.98214 0,-0.560851 0.133316,-1.038676 0.507838,-1.820173 0.982027,-2.049146 2.438735,-3.01996 4.696304,-3.129825 2.027486,-0.09867 3.577209,0.486943 4.908202,1.854719 0.908054,0.933149 1.230573,1.823215 1.230573,3.396063 0,1.274876 -0.03046,1.405991 -0.551066,2.372375 -1.634738,3.034487 -1.775146,3.3918 -1.858625,4.729864 l -0.07925,1.270385 0.669465,0.641461 c 0.368204,0.352803 1.528725,1.213271 2.578933,1.91215 1.812387,1.206086 3.405758,2.611554 4.069617,3.589698 1.365976,2.012656 1.872195,4.225512 1.60838,7.030787 -0.240653,2.558981 -1.35508,4.123085 -4.294043,6.026706 -2.063213,1.336381 -2.55027,1.741567 -2.951408,2.455294 -0.406663,0.723559 -0.337465,1.498872 0.218444,2.447528 0.503827,0.859777 2.170851,2.354716 3.698586,3.316785 4.641187,2.922722 5.78774,3.78815 7.789068,5.879256 4.067277,4.249734 5.96132,9.404048 6.461918,17.585012 l 0.09753,1.593939 H 45.026505 22.003332 Z"
     id="path3214" />
</svg>
