<?xml version="1.0" encoding="UTF-8" standalone="no"?>
<svg
   xmlns:dc="http://purl.org/dc/elements/1.1/"
   xmlns:cc="http://creativecommons.org/ns#"
   xmlns:rdf="http://www.w3.org/1999/02/22-rdf-syntax-ns#"
   xmlns:svg="http://www.w3.org/2000/svg"
   xmlns="http://www.w3.org/2000/svg"
   xmlns:sodipodi="http://sodipodi.sourceforge.net/DTD/sodipodi-0.dtd"
   xmlns:inkscape="http://www.inkscape.org/namespaces/inkscape"
   width="90"
   height="90"
   version="1.1"
   id="svg116"
   sodipodi:docname="bishop_b.svg"
   inkscape:version="1.0.1 (c497b03c, 2020-09-10)">
  <metadata
     id="metadata122">
    <rdf:RDF>
      <cc:Work
         rdf:about="">
        <dc:format>image/svg+xml</dc:format>
        <dc:type
           rdf:resource="http://purl.org/dc/dcmitype/StillImage" />
      </cc:Work>
    </rdf:RDF>
  </metadata>
  <defs
     id="defs120" />
  <sodipodi:namedview
     pagecolor="#ffffff"
     bordercolor="#666666"
     borderopacity="1"
     objecttolerance="10"
     gridtolerance="10"
     guidetolerance="10"
     inkscape:pageopacity="0"
     inkscape:pageshadow="2"
     inkscape:window-width="1912"
     inkscape:window-height="1428"
     id="namedview118"
     showgrid="false"
     inkscape:zoom="20.187258"
     inkscape:cx="40.346278"
     inkscape:cy="60.851583"
     inkscape:window-x="0"
     inkscape:window-y="25"
     inkscape:window-maximized="0"
     inkscape:current-layer="svg116"
     inkscape:document-rotation="0" />
  <path
     d="m 38.673705,56.23163 c -4.3895,0 -6.5842,0.68853 -6.5841,2.0656 -1.2e-4,1.2049 1.9364,1.9365 5.8095,2.1947 h 7.1005 c 8.6065,0 12.91,-0.73158 12.91,-2.1947 -1.2e-4,-1.3771 -2.1948,-2.0656 -6.5841,-2.0656 h -12.652 m 0,-8.0042 c -3.787,0 -5.8957,0.43035 -6.3259,1.291 -0.17224,0.17215 -0.25832,0.43034 -0.2582,0.77461 -1.2e-4,0.94673 0.90359,1.5062 2.7111,1.6783 2.2376,0.25819 5.6373,0.3873 10.199,0.3873 4.5617,0 8.0041,-0.12911 10.328,-0.3873 1.7212,-0.17214 2.5819,-0.73157 2.582,-1.6783 -1.2e-4,-1.3771 -2.1948,-2.0656 -6.5841,-2.0656 h -12.652 m 24.013,5.5513 2.582,9.9407 c -1e-4,3.0123 -3.0555,4.7767 -9.1661,5.2931 4.4754,1.7213 8.6496,2.582 12.523,2.582 0.51631,0 3.0553,-0.12911 7.6169,-0.38731 3.7868,0 6.8852,1.9795 9.2952,5.9386 0.34416,0.68852 0.77451,1.4631 1.291,2.3238 l -4.6476,7.1005 c -1.3772,1.7213 -2.8403,2.8402 -4.3894,3.3566 -0.34439,-1.8074 -3.0985,-2.9262 -8.2624,-3.3566 l -3.0984,-0.25819 c -10.586,-0.86066 -17.73,-3.1414 -21.431,-6.8423 -3.3567,3.5287 -8.4777,5.5513 -15.363,6.0677 -1.5492,0.17215 -3.5718,0.43034 -6.0677,0.77461 -6.2829,0.51639 -9.9407,1.4201 -10.973,2.7111 -0.17214,0.25819 -0.30125,0.55943 -0.38731,0.90369 -2.2377,-0.94673 -4.3464,-3.0984 -6.3259,-6.455 -0.77461,-1.3771 -1.6783,-2.7111 -2.7111,-4.0021 2.3238,-4.3033 4.8197,-6.8853 7.4878,-7.746 0.94676,-0.34427 1.9795,-0.5164 3.0984,-0.5164 l 7.6169,0.38731 c 3.959,0 8.1333,-0.86068 12.523,-2.582 -6.1107,-0.51639 -9.1661,-2.2808 -9.1661,-5.2931 0,-0.25819 0.68853,-2.4529 2.0656,-6.5841 0.43032,-1.3771 0.6455,-2.3238 0.6455,-2.8402 -5.2501,-6.3689 -7.8751,-12.006 -7.8751,-16.912 0,-5.6804 2.7972,-10.844 8.3915,-15.492 4.9918,-4.2173 8.6066,-6.455 10.844,-6.7132 -1.8936,-2.3238 -2.8403,-4.7337 -2.8402,-7.2296 -1e-4,-4.0451 2.0225,-6.541 6.0677,-7.4878 0.94662,-0.2581 1.9364,-0.38718 2.9693,-0.38729 4.3032,1.1e-4 7.1004,1.5922 8.3915,4.7767 l 0.6455,2.7111 v 0.3873 c -1e-4,2.4099 -0.94684,4.8197 -2.8402,7.2296 1.6352,0.43033 4.088,1.7644 7.3587,4.0021 7.918,5.5082 11.877,11.576 11.877,18.203 -1e-4,4.9919 -2.5821,10.457 -7.746,16.396 m -15.363,-12.006 v -5.9386 h 4.5185 v -4.9058 h -4.5185 v -5.5513 h -4.6476 v 5.5513 h -4.5185 v 4.9058 h 4.5185 v 5.9386 h 4.6476 m -2.3238,-36.406 c -1.7214,0 -2.7973,0.77458 -3.2275,2.3238 l -0.12908,0.77458 c -1.1e-4,1.6353 0.86055,2.6681 2.582,3.0984 0.25809,0.08607 0.51629,0.12909 0.77461,0.12909 2.1515,0 3.2274,-1.0758 3.2275,-3.2275 -1.1e-4,-2.0656 -1.076,-3.0984 -3.2275,-3.0984"
     id="path114" />
  <path
     style="fill:#ffffff;stroke-width:0.0495362"
     d="m 37.225498,60.420842 c -3.364119,-0.302163 -5.103378,-1.034446 -5.094965,-2.145141 0.008,-1.055352 1.367934,-1.683953 4.203313,-1.942884 1.013018,-0.09251 16.344407,-0.0913 17.337669,0.0014 2.653438,0.24756 3.978336,0.792793 4.175758,1.718442 0.06946,0.325683 0.0024,0.548152 -0.239488,0.794632 -0.860108,0.876386 -3.626243,1.372341 -8.686648,1.557475 -1.245223,0.04556 -11.214902,0.05929 -11.695639,0.01611 z"
     id="path838" />
  <path
     style="fill:#ffffff;stroke-width:0.0495362"
     d="m 41.039785,52.301077 c -2.295947,-0.06097 -4.190311,-0.160069 -5.622359,-0.294115 -1.780204,-0.166635 -2.548901,-0.404003 -2.99461,-0.924715 -0.610693,-0.713456 -0.275252,-1.727027 0.715945,-2.163302 0.644957,-0.283878 1.77994,-0.497133 3.1796,-0.597424 0.96549,-0.06918 16.205329,-0.07099 17.130241,-0.002 2.507743,0.186963 3.940137,0.684543 4.328017,1.503449 0.122327,0.258259 0.119027,0.699923 -0.0073,0.979225 -0.202071,0.446711 -0.716555,0.783301 -1.497137,0.979469 -0.683567,0.171787 -2.445708,0.327164 -5.151765,0.454258 -1.016228,0.04773 -8.834292,0.09829 -10.080616,0.06519 z"
     id="path840" />
  <path
     style="fill:#ffffff;stroke-width:0.0495362"
     d="M 42.699247,38.783207 V 35.835803 H 40.44535 38.191453 V 33.383762 30.93172 h 2.253897 2.253897 v -2.774027 -2.774027 h 2.303434 2.303433 v 2.774027 2.774027 h 2.253897 2.253897 v 2.452042 2.452041 h -2.253897 -2.253897 v 2.947404 2.947404 h -2.303433 -2.303434 z"
     id="path842" />
  <path
     style="fill:#ffffff;stroke-width:0.0495362;fill-opacity:1"
     d="m 44.556855,11.631545 c -1.842079,-0.481142 -2.652974,-1.242024 -2.852501,-2.676568 -0.100762,-0.724455 0.161601,-1.7257701 0.620793,-2.3692706 0.237973,-0.3334895 0.59885,-0.6552607 0.915567,-0.8163545 0.569311,-0.2895717 1.449932,-0.4230155 2.275409,-0.344801 1.408281,0.1334354 2.236199,0.773763 2.570269,1.9878941 0.06588,0.2394197 0.08472,0.4950969 0.08136,1.1041455 -0.0038,0.6939098 -0.01964,0.84291 -0.127083,1.1968703 -0.291653,0.9608362 -0.923892,1.5692102 -1.898659,1.8269922 -0.294204,0.0778 -1.394055,0.141008 -1.585158,0.09109 z"
     id="path844" />
  <path
     style="fill:#ffffff;fill-opacity:1;stroke-width:0.0495362"
     d="M 42.699247,38.783207 V 35.835803 H 40.44535 38.191453 V 33.383762 30.93172 h 2.253897 2.253897 v -2.774027 -2.774027 h 2.303434 2.303433 v 2.774027 2.774027 h 2.253897 2.253897 v 2.452042 2.452041 h -2.253897 -2.253897 v 2.947404 2.947404 h -2.303433 -2.303434 z"
     id="path846" />
  <path
     style="fill:#ffffff;fill-opacity:1;stroke-width:0.0495362"
     d="m 44.556855,11.631545 c -1.01121,-0.264123 -1.598817,-0.55234 -2.057521,-1.009199 -0.665479,-0.662803 -0.935694,-1.5533577 -0.766436,-2.5259593 0.33707,-1.9368974 1.662347,-2.8727903 3.78344,-2.6718155 1.408114,0.1334196 2.237311,0.7748707 2.569702,1.9878738 0.119599,0.4364526 0.118047,1.7144214 -0.0026,2.1691737 -0.271477,1.0229863 -0.935293,1.6927663 -1.941392,1.9588343 -0.294205,0.0778 -1.394056,0.141008 -1.585159,0.09109 z"
     id="path848" />
  <path
     style="fill:#ffffff;fill-opacity:1;stroke-width:0.0495362"
     d="m 37.225498,60.420842 c -3.367851,-0.302498 -5.103387,-1.033214 -5.094965,-2.145141 0.0072,-0.952936 1.134274,-1.56975 3.385966,-1.853071 1.204606,-0.15157 2.56592,-0.176966 9.486182,-0.176966 6.900695,0 8.296334,0.0258 9.461409,0.174909 2.42105,0.30985 3.461683,0.927401 3.400938,2.018243 -0.01006,0.180557 -0.373289,0.570046 -0.694825,0.745048 -1.22412,0.666249 -3.895325,1.061591 -8.249066,1.220872 -1.245223,0.04556 -11.214902,0.05929 -11.695639,0.01611 z"
     id="path850" />
  <path
     style="fill:#ffffff;fill-opacity:1;stroke-width:0.0495362"
     d="m 41.039785,52.297672 c -2.739082,-0.05705 -5.744631,-0.249371 -6.864582,-0.439253 -0.49899,-0.0846 -1.063907,-0.268262 -1.361409,-0.44261 -0.474289,-0.277952 -0.758624,-0.818439 -0.690631,-1.312807 0.04156,-0.302205 0.337614,-0.771705 0.601477,-0.953871 0.623292,-0.430308 1.780214,-0.696023 3.609206,-0.82894 0.945898,-0.06874 16.208263,-0.06797 17.139524,8.62e-4 2.479117,0.183246 3.916242,0.68482 4.303249,1.501883 0.122327,0.258259 0.119027,0.699923 -0.0073,0.979225 -0.202315,0.447252 -0.74277,0.800378 -1.507077,0.984706 -0.883743,0.213132 -3.5029,0.40421 -6.77652,0.494374 -1.568646,0.04321 -6.682822,0.05315 -8.445921,0.01643 z"
     id="path852" />
</svg>
