<?xml version="1.0" encoding="UTF-8" standalone="no"?>
<svg
   xmlns:dc="http://purl.org/dc/elements/1.1/"
   xmlns:cc="http://creativecommons.org/ns#"
   xmlns:rdf="http://www.w3.org/1999/02/22-rdf-syntax-ns#"
   xmlns:svg="http://www.w3.org/2000/svg"
   xmlns="http://www.w3.org/2000/svg"
   xmlns:sodipodi="http://sodipodi.sourceforge.net/DTD/sodipodi-0.dtd"
   xmlns:inkscape="http://www.inkscape.org/namespaces/inkscape"
   width="90"
   height="90"
   version="1.1"
   id="svg126"
   sodipodi:docname="bishop_w.svg"
   inkscape:version="1.0.1 (c497b03c, 2020-09-10)">
  <metadata
     id="metadata132">
    <rdf:RDF>
      <cc:Work
         rdf:about="">
        <dc:format>image/svg+xml</dc:format>
        <dc:type
           rdf:resource="http://purl.org/dc/dcmitype/StillImage" />
      </cc:Work>
    </rdf:RDF>
  </metadata>
  <defs
     id="defs130" />
  <sodipodi:namedview
     pagecolor="#ffffff"
     bordercolor="#666666"
     borderopacity="1"
     objecttolerance="10"
     gridtolerance="10"
     guidetolerance="10"
     inkscape:pageopacity="0"
     inkscape:pageshadow="2"
     inkscape:window-width="926"
     inkscape:window-height="909"
     id="namedview128"
     showgrid="false"
     inkscape:zoom="4.5758755"
     inkscape:cx="42.159014"
     inkscape:cy="45"
     inkscape:window-x="0"
     inkscape:window-y="25"
     inkscape:window-maximized="0"
     inkscape:current-layer="svg126" />
  <path
     d="m 44.99962,51.77774 c -6.0248,0 -10.715,-0.25821 -14.072,-0.7746 0.60235,1.2049 0.90359,2.2377 0.90369,3.0984 -10e-5,1.291 -0.2583,2.3668 -0.77458,3.2275 2.4958,-0.7746 7.1434,-1.1619 13.943,-1.1619 6.7996,0 11.447,0.38731 13.943,1.1619 -0.5165,-0.86067 -0.77469,-1.9365 -0.77459,-3.2275 -1e-4,-1.0328 0.25809,-2.0656 0.77459,-3.0984 -4.0452,0.51639 -8.6928,0.7746 -13.943,0.7746 m 0,-46.734 c -1.8075,0 -3.0555,0.81761 -3.7439,2.4529 -0.17225,0.43033 -0.2583,0.86068 -0.2582,1.291 -1e-4,1.8935 0.94662,3.1414 2.8402,3.7439 0.34416,0.0861 0.73147,0.12911 1.1619,0.12911 1.9794,0 3.2704,-0.90372 3.873,-2.7111 0.08595,-0.34428 0.12898,-0.73158 0.12911,-1.1619 -1.3e-4,-1.7213 -0.86078,-2.8832 -2.582,-3.4857 -0.5165,-0.17214 -0.98988,-0.25819 -1.4201,-0.25819 m 0,54.867 c -3.2706,0 -7.4879,0.30124 -12.652,0.9037 -1.4631,0.17215 -2.3238,0.98977 -2.582,2.4529 0,1.0328 2.3667,1.6783 7.1005,1.9365 -0.43044,-0.0861 -0.2583,-0.12911 0.51641,-0.12911 h 7.6169 c 10.07,0 15.105,-0.60246 15.105,-1.8074 -1.2e-4,-1.9795 -2.496,-3.0554 -7.4878,-3.2275 h -3.7439 c -1.119,0 -2.0657,-0.043 -2.8402,-0.12911 h -1.0328 m -0.12911,-11.877 c 9.6394,0 15.535,-0.90369 17.687,-2.7111 1.463,-1.1189 2.5388,-4.0882 3.2275,-8.9079 -0.43044,-4.3033 -3.2276,-8.4345 -8.3915,-12.394 -4.8198,-3.7869 -9.0371,-5.8956 -12.652,-6.3259 -3.3567,0.43034 -7.4449,2.539 -12.264,6.3259 -5.0779,3.9591 -7.832,8.0903 -8.2624,12.394 0.60248,4.4755 1.5492,7.3157 2.8402,8.5206 0.34426,0.34427 0.73157,0.6455 1.1619,0.90369 2.1517,1.4632 7.7029,2.1947 16.654,2.1947 m -2.1947,-6.3259 v -5.6804 h -4.3894 v -5.0349 h 4.3894 v -5.5513 h 4.6476 v 5.5513 h 4.3894 v 5.0349 h -4.3894 v 5.6804 h -4.6476 m 2.0656,26.336 c -0.77469,0 -3.0555,1.5062 -6.8423,4.5185 -2.6682,1.8074 -6.9714,2.8832 -12.91,3.2275 -4.3033,0 -7.746,0.21516 -10.328,0.6455 -2.7541,0.60246 -4.1312,1.7644 -4.1312,3.4857 0.2582,1.7213 1.1619,2.582 2.7111,2.582 l 6.8423,-1.0328 c 4.4754,0 9.1661,-0.60246 14.072,-1.8074 5.5942,-1.4631 9.209,-3.7869 10.844,-6.9714 2.3237,4.5616 8.3483,7.3157 18.074,8.2624 l 3.3566,0.51641 h 3.3566 l 6.9714,1.0328 c 1.5491,0 2.4528,-0.86067 2.7111,-2.582 -10e-5,-1.7213 -1.3772,-2.8832 -4.1312,-3.4857 l -13.814,-1.0328 c -4.3895,-0.34427 -8.6068,-2.0656 -12.652,-5.164 -1.8075,-1.4632 -3.1846,-2.1947 -4.1312,-2.1947 m 0.25821,11.232 c -3.3567,3.3566 -8.4346,5.4222 -15.234,6.1968 -2.7541,0.25819 -7.5739,0.86066 -14.459,1.8074 -1.8074,0.34428 -2.8402,1.1619 -3.0984,2.4529 -1.6353,-0.43033 -4.0451,-3.0984 -7.2296,-8.0042 -0.7746,-1.2049 -1.334,-2.0226 -1.6783,-2.4529 2.8402,-5.4222 6.3689,-8.1333 10.586,-8.1333 l 7.6169,0.3873 c 3.5287,0 7.6599,-0.81764 12.394,-2.4529 -6.1107,-0.77459 -9.1661,-2.625 -9.1661,-5.5513 l 2.582,-9.8116 v -0.25822 c -5.164,-5.6804 -7.746,-11.017 -7.746,-16.008 0,-5.6804 2.7972,-10.844 8.3915,-15.492 4.9057,-4.1312 8.5205,-6.3259 10.844,-6.5841 -1.8936,-2.3238 -2.8403,-4.7336 -2.8402,-7.2296 -1.1e-4,-3.9591 1.9794,-6.455 5.9386,-7.4878 0.94662,-0.25809 1.9794,-0.3872 3.0984,-0.38731 4.2172,1.1e-4 6.9713,1.5922 8.2624,4.7767 l 0.6455,2.7111 v 0.38728 c -10e-5,2.6681 -0.90382,5.0779 -2.7111,7.2296 2.3237,0.25821 5.9815,2.4959 10.974,6.7132 5.5081,4.5615 8.2623,9.6825 8.2624,15.363 -1.1e-4,4.8197 -2.5821,10.156 -7.746,16.008 -1e-4,1.205 0.43023,2.9263 1.291,5.164 0.86056,2.7541 1.2909,4.3894 1.291,4.9058 -1e-4,2.9263 -3.0555,4.7767 -9.1661,5.5513 4.6475,1.6353 8.7787,2.4529 12.394,2.4529 l 7.6169,-0.3873 c 4.2172,0 7.7459,2.7111 10.586,8.1333 l -4.3894,6.7132 c -1.4632,1.8935 -2.9694,3.1414 -4.5185,3.7439 -0.34438,-1.7213 -2.8403,-2.7972 -7.4878,-3.2275 0.60235,0 -0.68864,-0.12911 -3.873,-0.3873 -10.758,-1.0328 -17.902,-3.3136 -21.431,-6.8423"
     id="path124" />
</svg>
