<?xml version="1.0" encoding="UTF-8" standalone="no"?>
<svg
   xmlns:dc="http://purl.org/dc/elements/1.1/"
   xmlns:cc="http://creativecommons.org/ns#"
   xmlns:rdf="http://www.w3.org/1999/02/22-rdf-syntax-ns#"
   xmlns:svg="http://www.w3.org/2000/svg"
   xmlns="http://www.w3.org/2000/svg"
   xmlns:sodipodi="http://sodipodi.sourceforge.net/DTD/sodipodi-0.dtd"
   xmlns:inkscape="http://www.inkscape.org/namespaces/inkscape"
   width="90"
   height="90"
   version="1.1"
   id="svg211"
   sodipodi:docname="rook_w.svg"
   inkscape:version="1.0.1 (c497b03c, 2020-09-10)">
  <metadata
     id="metadata217">
    <rdf:RDF>
      <cc:Work
         rdf:about="">
        <dc:format>image/svg+xml</dc:format>
        <dc:type
           rdf:resource="http://purl.org/dc/dcmitype/StillImage" />
      </cc:Work>
    </rdf:RDF>
  </metadata>
  <defs
     id="defs215" />
  <sodipodi:namedview
     pagecolor="#ffffff"
     bordercolor="#666666"
     borderopacity="1"
     objecttolerance="10"
     gridtolerance="10"
     guidetolerance="10"
     inkscape:pageopacity="0"
     inkscape:pageshadow="2"
     inkscape:window-width="1096"
     inkscape:window-height="914"
     id="namedview213"
     showgrid="false"
     inkscape:zoom="5.6487517"
     inkscape:cx="36.403355"
     inkscape:cy="45"
     inkscape:window-x="0"
     inkscape:window-y="25"
     inkscape:window-maximized="0"
     inkscape:current-layer="svg211"
     inkscape:document-rotation="0" />
  <path
     d="m 30.2832,32.79965 v 22.851 h 29.435 v -22.851 h -29.435 m -15.234,50.091 -2.4529,-2.4529 v -8.9079 l 13.168,-13.297 v -25.82 l -11.361,-9.9407 v -11.748 l 3.7439,-3.6148 h 11.619 l 2.1947,2.1947 v 3.3566 h 3.7439 v -3.3566 l 2.1947,-2.1947 h 14.201 l 2.1947,2.1947 v 3.3566 H 57.91 v -3.3566 l 2.3238,-2.1947 h 11.619 l 3.7439,3.6148 v 11.748 l -11.361,9.9407 v 25.82 l 13.168,13.297 v 8.9079 l -2.4529,2.4529 h -59.902 m 2.0656,-10.199 v 5.0349 h 55.771 v -5.0349 h -55.771 m 12.652,-12.781 -8.5206,8.2624 h 47.509 l -8.5206,-8.2624 h -30.468 m 10.328,-47.38 v 3.3566 l -1.9365,1.8074 h -8.3915 l -1.9365,-1.8074 v -3.6148 h -7.2296 l -1.6783,1.8074 v 7.2296 l 8.7788,7.1005 h 34.599 l 8.7788,-7.1005 v -7.2296 l -1.6783,-1.8074 h -7.2296 v 3.6148 l -1.9365,1.8074 h -8.3915 l -1.9365,-1.8074 v -3.3566 h -9.8116"
     id="path209" />
  <path
     style="fill:#ffffff;stroke-width:0.17703"
     d="m 17.284087,75.18366 v -2.478424 h 27.793751 27.793751 v 2.478424 2.478424 H 45.077838 17.284087 Z"
     id="path5520" />
  <path
     style="fill:#ffffff;stroke-width:0.17703"
     d="m 21.890897,67.681329 c 0.241204,-0.231616 2.135468,-2.063879 4.209477,-4.071696 l 3.770926,-3.650576 15.171312,0.0094 15.171313,0.0094 4.157832,4.062285 4.15783,4.062285 H 44.990966 21.452345 Z"
     id="path5522" />
  <path
     style="fill:#ffffff;stroke-width:0.17703"
     d="M 30.384326,44.203364 V 32.873427 H 44.989323 59.59432 V 44.203364 55.533301 H 44.989323 30.384326 Z"
     id="path5524" />
  <path
     style="fill:#ffffff;stroke-width:0.17703"
     d="m 23.348043,24.764044 -4.292315,-3.486099 -6.69e-4,-3.635776 -6.7e-4,-3.635775 0.846975,-0.834239 0.846974,-0.834239 h 3.490267 3.490267 v 1.832269 1.832269 l 1.048204,0.911701 1.048204,0.9117 h 4.224494 4.224493 l 0.923362,-0.934976 0.923362,-0.934976 V 14.32394 12.691977 h 4.868332 4.868332 v 1.664024 1.664024 l 0.987933,0.902914 0.987932,0.902916 h 4.199122 4.199123 l 1.009003,-0.899312 1.009005,-0.899311 v -1.844658 -1.844658 h 3.503003 3.503002 l 0.834239,0.846975 0.834239,0.846975 v 3.632437 3.632436 l -4.292984,3.48204 -4.292983,3.48204 -17.348966,-0.0053 -17.348966,-0.0053 -4.292314,-3.4861 z"
     id="path5526" />
</svg>
